<?xml version="1.0" standalone="no"?>
<!DOCTYPE svg PUBLIC "-//W3C//DTD SVG 20010904//EN"
 "http://www.w3.org/TR/2001/REC-SVG-20010904/DTD/svg10.dtd">
<svg version="1.0" xmlns="http://www.w3.org/2000/svg"
 width="960.000000pt" height="960.000000pt" viewBox="0 0 960.000000 960.000000"
 preserveAspectRatio="xMidYMid meet">
<metadata>
Created by potrace 1.11, written by Peter Selinger 2001-2013
</metadata>
<g transform="translate(0.000000,960.000000) scale(0.100000,-0.100000)"
fill="#000000" stroke="none">
<path d="M175 9564 c-22 -20 -70 -65 -107 -100 l-68 -64 0 -689 0 -689 158 95
c400 243 997 599 1360 813 40 23 75 40 79 37 10 -11 40 -239 128 -967 14 -118
37 -303 50 -410 19 -152 22 -197 12 -206 -7 -7 -39 -20 -72 -29 -59 -17 -219
-105 -274 -150 -16 -14 -33 -25 -39 -25 -5 0 -23 26 -40 58 -17 31 -58 84 -91
118 -60 60 -63 62 -183 97 -291 86 -698 146 -980 147 l-108 0 0 -3654 0 -3653
25 5 c14 2 25 8 25 13 0 5 7 9 16 9 9 0 49 10 88 22 39 12 76 21 82 20 6 -1
37 9 68 23 38 17 65 23 83 19 16 -4 24 -3 20 3 -6 10 61 39 70 29 3 -3 20 2
37 11 17 9 41 16 53 14 11 -1 24 2 27 8 4 5 27 13 51 17 25 3 45 10 45 15 0 5
15 9 33 9 17 0 47 9 65 20 18 11 44 20 58 20 14 0 38 7 54 15 16 8 36 12 44 9
9 -3 16 -1 16 5 0 6 10 11 23 12 29 1 166 47 147 49 -25 4 62 19 108 19 26 1
41 5 37 11 -3 6 2 10 12 10 10 0 42 9 71 20 30 11 66 22 80 24 15 2 38 8 52
14 14 6 34 14 45 18 19 6 18 7 -5 14 l-25 8 28 1 c15 1 27 6 27 11 0 6 5 10
11 10 5 0 7 -5 4 -10 -4 -6 7 -10 25 -10 17 0 29 4 26 9 -3 5 0 9 7 8 44 -1
78 5 90 17 8 8 39 18 68 22 30 4 48 9 42 11 -27 9 -11 23 26 23 24 0 41 5 44
14 7 18 55 26 85 15 13 -5 21 -5 18 0 -11 16 22 33 52 26 22 -4 31 -2 35 9 4
11 16 15 37 12 22 -2 30 0 26 9 -5 14 38 30 54 20 6 -4 10 -1 10 6 0 7 10 9
25 7 13 -3 26 -1 28 5 1 5 55 25 117 43 63 18 171 49 240 68 69 20 145 42 170
50 77 25 204 62 520 151 168 47 366 104 440 125 74 22 230 66 345 99 195 56
385 111 775 224 85 25 189 54 230 65 41 12 181 50 310 85 263 72 304 81 295
67 -3 -6 0 -10 9 -10 8 0 16 4 18 8 4 12 68 23 68 12 0 -5 -9 -11 -20 -15 -11
-3 -19 -11 -17 -16 3 -14 -27 -25 -283 -104 -290 -90 -333 -104 -349 -114 -19
-12 -6 -41 19 -41 11 0 20 -4 20 -9 0 -5 15 -15 34 -21 19 -6 37 -17 40 -25 3
-8 13 -15 23 -15 10 0 24 -9 31 -20 10 -16 16 -18 31 -10 14 7 20 6 24 -5 3
-7 22 -17 41 -21 20 -3 36 -10 36 -15 0 -5 11 -9 24 -9 14 0 36 -13 52 -29 21
-22 32 -27 44 -21 11 6 21 5 28 -2 7 -7 12 -9 12 -6 0 4 12 1 26 -7 15 -7 33
-11 41 -8 10 4 14 0 11 -13 -2 -14 2 -18 17 -17 31 4 65 -18 65 -42 0 -18 5
-21 29 -17 16 2 32 -1 35 -7 4 -6 19 -11 32 -11 15 0 34 -10 45 -23 10 -12 18
-16 19 -9 0 23 20 12 20 -12 0 -14 4 -27 9 -30 14 -9 21 20 8 33 -14 14 -3 25
18 17 9 -3 13 -11 10 -16 -9 -14 13 -40 34 -40 9 0 38 -11 65 -25 27 -14 63
-25 80 -25 33 -1 95 -29 65 -30 -29 0 -29 -25 0 -27 24 -1 67 -10 144 -29 27
-6 38 -24 15 -24 -7 -1 14 -12 47 -26 33 -14 65 -31 70 -38 6 -7 20 -18 33
-25 26 -14 29 -38 5 -44 -16 -4 -16 -5 1 -6 10 -1 16 -6 13 -14 -4 -10 6 -11
47 -5 28 5 65 10 81 11 17 1 33 7 37 12 4 6 8 2 8 -7 0 -10 -4 -18 -10 -18 -5
0 -10 -7 -10 -15 0 -9 6 -12 15 -9 8 4 26 -1 40 -10 14 -9 30 -14 35 -11 5 3
12 1 15 -5 4 -6 15 -8 26 -5 12 4 21 1 25 -9 3 -9 12 -16 19 -16 7 0 25 -7 41
-14 15 -8 31 -13 35 -11 4 3 12 -2 19 -10 7 -8 24 -15 39 -15 38 0 51 -17 51
-67 0 -24 3 -43 8 -43 4 0 12 -10 17 -22 7 -15 18 -22 30 -20 11 1 50 5 88 9
65 6 67 5 67 -16 0 -15 8 -25 21 -28 17 -5 20 -12 17 -44 -2 -27 0 -39 9 -39
7 0 13 6 13 14 0 28 25 37 63 21 34 -14 35 -17 31 -52 -4 -27 -3 -34 4 -24 9
12 13 12 26 2 13 -11 19 -11 33 0 13 11 17 11 20 2 3 -7 20 -13 40 -13 19 0
41 -7 49 -15 9 -8 29 -15 45 -15 27 0 29 -3 29 -38 0 -32 5 -41 25 -50 33 -15
50 -15 75 0 16 10 24 10 38 0 32 -23 43 -24 61 -8 10 9 31 16 47 16 24 -1 26
-2 12 -11 -24 -13 -23 -29 2 -29 11 0 20 -7 20 -15 0 -9 10 -15 23 -16 22 -1
22 -1 -2 -8 -23 -6 -23 -7 -6 -24 13 -13 20 -15 25 -7 5 8 17 7 44 -4 20 -8
36 -13 36 -10 0 12 97 -49 141 -90 27 -25 55 -46 60 -46 16 0 39 27 39 47 1
17 1 17 12 -1 8 -15 8 -21 0 -24 -15 -5 -16 -82 -2 -82 6 0 10 -18 10 -40 0
-38 2 -40 29 -40 16 0 32 6 35 13 5 9 7 9 12 0 3 -7 14 -13 24 -13 10 0 21 6
24 13 5 9 7 9 12 0 4 -10 127 -13 565 -13 l559 0 0 1094 0 1094 -47 8 c-27 5
-55 8 -63 9 -8 0 -17 3 -21 7 -6 9 -84 26 -154 34 -71 8 -139 24 -145 34 -3 6
-27 10 -53 11 -27 1 -50 6 -53 11 -3 5 -14 6 -24 3 -10 -3 -44 1 -74 10 -30 9
-61 15 -68 14 -7 -1 -26 4 -43 11 -16 7 -39 14 -50 16 -74 11 -147 26 -190 39
-65 19 -224 56 -251 58 -11 1 -28 8 -37 15 -10 9 -17 9 -22 3 -4 -7 -12 -7
-23 -1 -29 15 -114 40 -122 35 -4 -3 -43 5 -86 16 -83 22 -105 27 -249 58
-111 23 -301 66 -415 92 -47 11 -103 24 -125 28 -49 10 -167 39 -215 52 -19 5
-69 17 -110 25 -41 8 -104 22 -140 30 -127 29 -146 34 -220 48 -41 8 -97 20
-125 26 -27 6 -140 31 -250 55 -110 24 -222 49 -250 55 -27 6 -79 17 -115 24
-183 37 -368 77 -390 86 -38 14 -120 23 -95 10 18 -9 17 -10 -5 -5 -14 2 -31
5 -38 5 -7 0 -10 5 -7 10 4 7 -8 10 -32 9 -21 -1 -60 4 -88 10 -27 7 -68 16
-90 20 -54 11 -170 39 -222 52 -24 7 -43 18 -43 25 0 8 -5 14 -11 14 -5 0 -7
-5 -4 -10 4 -6 -6 -10 -22 -10 -37 1 -225 48 -195 49 32 1 23 26 -9 27 -14 0
-30 4 -37 8 -7 4 -33 8 -57 8 -38 1 -46 5 -55 27 -10 26 -10 26 -6 -4 l4 -30
-19 24 c-10 13 -19 31 -19 41 0 10 -14 73 -31 140 -17 67 -29 123 -27 124 10
9 826 -137 1318 -234 80 -16 269 -52 420 -80 151 -28 345 -64 430 -80 85 -16
198 -36 250 -45 78 -13 574 -103 945 -172 44 -8 127 -23 185 -33 58 -11 143
-27 190 -35 47 -9 135 -25 195 -36 173 -31 397 -73 859 -164 235 -47 432 -85
437 -85 5 0 9 527 9 1251 0 1047 -2 1250 -13 1240 -10 -8 -26 -6 -63 7 l-49
17 63 3 62 3 0 784 c0 484 -4 785 -9 785 -6 0 -13 -4 -16 -10 -3 -5 -17 -10
-30 -10 -18 0 -23 4 -19 15 4 9 19 15 40 15 34 0 34 1 34 45 0 25 -3 45 -7 44
-16 -1 -47 -18 -35 -18 6 -1 12 -5 12 -10 0 -14 -98 -25 -114 -12 -7 6 -16 7
-21 3 -4 -4 -4 3 -1 16 7 20 4 22 -29 22 -45 0 -78 17 -71 35 6 17 -9 29 -24
20 -8 -5 -8 -11 0 -20 8 -10 4 -18 -15 -33 -14 -12 -31 -23 -38 -25 -8 -3 -5
-10 8 -21 20 -16 20 -16 1 -31 -11 -8 -17 -18 -13 -22 7 -6 -55 -53 -70 -53
-4 0 -1 5 7 10 10 7 -17 10 -85 9 -55 0 -115 3 -134 7 -28 6 -33 4 -28 -9 7
-18 -19 -27 -78 -27 -29 0 -36 3 -25 10 11 7 -4 10 -50 10 -36 0 -72 5 -80 11
-13 9 -13 10 1 6 9 -3 22 -1 30 4 11 7 11 9 -3 9 -10 0 -18 7 -18 15 0 29
-252 14 -285 -18 -6 -6 1 -7 20 -4 63 12 180 18 167 9 -10 -6 -1 -11 29 -16
33 -5 40 -9 29 -16 -8 -5 -23 -10 -33 -10 -10 0 -16 -4 -12 -9 3 -5 -25 -13
-62 -16 -38 -4 -74 -12 -80 -17 -19 -15 -16 -38 5 -39 9 -1 -12 -7 -48 -15
-62 -14 -90 -32 -90 -61 0 -7 -5 -13 -11 -13 -6 0 -9 -7 -5 -15 3 -9 0 -15 -8
-15 -21 0 -40 -27 -24 -34 10 -5 10 -7 0 -12 -24 -11 -2 -20 42 -18 25 2 48
-1 51 -7 4 -5 16 -9 28 -10 15 -1 10 -5 -16 -13 -21 -6 -35 -15 -31 -19 4 -4
-15 -7 -42 -6 -38 0 -45 2 -29 10 14 6 5 8 -30 4 -88 -10 -104 -15 -98 -31 4
-12 17 -14 58 -9 50 7 103 -1 91 -12 -12 -12 -228 -47 -301 -49 -113 -2 -110
-1 -96 -18 10 -12 31 -13 102 -9 77 5 89 4 89 -10 0 -8 -12 -20 -27 -25 -25
-9 -26 -10 -5 -11 12 -1 22 -6 22 -12 0 -8 20 -10 60 -7 33 2 60 1 60 -2 0
-13 -156 -44 -207 -41 -29 1 -53 -2 -53 -7 0 -5 -12 -7 -26 -4 -19 3 -25 1
-20 -7 5 -7 -2 -11 -18 -11 -14 0 -26 -4 -26 -10 0 -5 12 -10 28 -10 25 -1 26
-1 7 -12 -11 -7 -78 -12 -165 -13 -117 -2 -151 -5 -179 -20 -27 -14 -47 -16
-105 -11 -39 4 -72 11 -74 16 -2 5 -16 7 -32 3 -39 -7 -147 6 -130 17 7 4 10
12 6 18 -3 5 9 12 26 16 19 4 28 10 22 15 -13 13 -127 -7 -140 -24 -6 -8 -19
-15 -28 -15 -9 0 -16 -4 -16 -10 0 -5 15 -10 33 -10 l32 0 -29 -24 -30 -23 75
-7 c73 -7 74 -8 75 -36 1 -26 -3 -29 -38 -35 -31 -6 -42 -3 -53 11 -7 10 -11
24 -8 31 8 21 -96 17 -119 -4 -16 -15 -24 -15 -69 -4 -50 13 -99 9 -99 -9 0
-12 1 -12 115 -12 l90 0 -88 -9 c-48 -5 -95 -13 -105 -18 -9 -5 -45 -12 -79
-16 l-62 -6 12 25 c7 14 18 26 25 26 7 0 11 4 7 10 -6 9 -76 6 -153 -7 -39 -7
-42 -10 -30 -26 15 -21 84 -39 112 -31 13 4 16 2 11 -6 -6 -9 7 -11 51 -6 33
3 71 7 86 8 14 2 30 6 34 11 12 12 67 8 86 -7 16 -12 14 -14 -21 -26 -21 -7
-44 -10 -49 -6 -6 3 -43 3 -82 0 -44 -4 -66 -10 -58 -15 19 -12 -44 -11 -76 1
-34 12 -86 2 -79 -15 2 -8 11 -11 19 -8 8 3 14 0 14 -7 0 -10 -16 -11 -62 -7
-34 3 -56 2 -49 -3 9 -5 10 -10 2 -14 -6 -4 -11 -14 -11 -22 0 -11 14 -14 59
-14 33 0 63 -4 66 -10 3 -5 -3 -10 -14 -10 -12 0 -21 -4 -21 -8 0 -5 -26 -7
-57 -4 -50 4 -55 3 -43 -10 8 -8 24 -17 35 -22 16 -6 17 -9 5 -16 -8 -6 -27
-10 -42 -10 -15 0 -30 -4 -33 -10 -3 -5 -27 -10 -53 -11 -26 0 -56 -4 -67 -8
-17 -7 -16 -8 9 -15 15 -4 54 -4 86 0 66 7 88 0 66 -22 -9 -9 -35 -14 -70 -14
-75 0 -84 -20 -9 -21 32 -1 72 -1 90 0 18 1 40 -2 50 -8 13 -7 -14 -10 -97 -8
-103 2 -115 4 -114 20 2 14 -7 17 -50 17 -28 -1 -62 -7 -76 -15 -14 -8 -41
-15 -60 -15 -30 -1 -32 -2 -16 -11 13 -8 25 -8 42 0 26 11 44 -3 20 -16 -11
-6 -12 -12 -5 -23 8 -11 12 -12 16 -2 6 16 78 15 92 -2 9 -11 -6 -15 -81 -26
-66 -9 -99 -19 -115 -33 -12 -11 -20 -24 -17 -29 3 -4 -2 -11 -11 -14 -9 -4
-12 -11 -7 -18 17 -22 12 -56 -8 -56 -31 0 -49 11 -43 26 3 10 -2 14 -18 14
-20 0 -21 2 -9 11 11 8 4 9 -28 6 -24 -3 -51 -12 -61 -21 -20 -18 -58 -21 -81
-6 -12 7 -8 10 15 10 l30 1 -30 14 -30 13 30 2 c17 1 37 2 45 1 11 -1 10 1 -3
9 -19 12 -53 5 -77 -15 -8 -8 -27 -17 -42 -20 -16 -4 -28 -10 -28 -14 0 -12
48 -31 75 -31 14 0 25 -4 25 -10 0 -5 -8 -10 -17 -10 -15 0 -16 -2 -3 -9 17
-12 92 -23 157 -24 41 0 44 -2 25 -10 -16 -7 -67 -7 -159 0 -128 10 -140 9
-193 -10 -56 -21 -59 -21 -129 -4 -65 16 -129 44 -128 57 1 12 -20 36 -42 48
-13 8 -48 16 -77 19 -54 6 -70 17 -36 26 9 3 1 5 -18 6 -53 1 -80 -9 -86 -34
-6 -23 -41 -35 -108 -35 -28 0 -29 1 -10 15 10 8 14 15 7 15 -6 0 -23 4 -37
10 -29 11 -26 40 5 40 10 0 19 5 19 10 0 6 9 10 19 10 11 0 23 5 26 10 4 6 -5
10 -19 10 -14 0 -26 5 -26 11 0 5 -5 7 -10 4 -6 -3 -31 -3 -57 1 -44 6 -45 7
-22 20 29 15 28 23 -3 38 -32 16 -36 53 -6 59 20 4 20 4 -4 6 -23 1 -28 6 -28
26 0 16 -6 25 -16 25 -8 0 -13 4 -9 9 3 5 0 11 -7 14 -7 2 -1 2 15 0 15 -3 27
0 27 5 0 17 -112 20 -184 5 -73 -15 -96 -12 -96 10 0 14 65 27 142 27 39 0 58
14 32 24 -9 3 -31 6 -50 6 -33 0 -46 13 -21 23 9 4 9 7 0 14 -9 6 -5 14 16 26
25 15 29 23 26 53 -2 28 2 37 19 44 17 7 18 9 4 9 -25 1 -22 21 2 21 11 0 23
-7 26 -15 4 -9 18 -14 38 -14 30 2 30 2 4 6 -36 6 -36 28 0 42 27 10 27 10 2
9 -14 -1 -35 2 -48 6 -19 6 -21 10 -10 23 7 8 24 20 38 25 14 6 20 12 12 15
-6 3 -10 9 -6 14 3 5 -1 9 -9 9 -10 0 -13 8 -9 25 2 14 10 25 17 25 7 0 15 9
18 20 3 11 1 20 -4 20 -22 0 -6 18 24 28 l32 10 -32 1 c-33 1 -44 15 -20 24 6
3 0 6 -15 6 -18 1 -32 -6 -40 -20 -7 -12 -26 -27 -42 -34 l-28 -12 25 -7 c13
-3 27 -13 31 -21 4 -11 -2 -15 -25 -15 -18 0 -28 4 -24 10 4 6 -7 10 -27 10
-18 0 -44 3 -57 7 -17 4 -22 3 -17 -5 8 -14 -30 -14 -79 -2 -28 7 -27 8 13 9
28 1 42 5 42 15 0 7 10 17 23 21 19 6 19 8 4 12 -9 2 -15 9 -12 14 4 5 0 9 -7
9 -7 1 2 9 21 18 19 9 37 24 39 32 4 11 1 10 -12 -3 -32 -31 -89 -34 -85 -4 4
32 -2 47 -20 47 -11 0 -21 -4 -23 -9 -5 -14 -106 -52 -113 -42 -2 5 2 12 11
15 11 4 14 14 11 27 -4 16 1 21 25 26 45 9 14 23 -53 23 -40 0 -69 -7 -102
-24 -41 -22 -47 -23 -58 -9 -11 12 -10 17 3 27 11 8 14 17 8 27 -8 11 2 15 58
19 51 4 67 9 67 20 0 11 14 16 53 18 28 2 52 7 52 13 0 5 -6 9 -14 9 -22 0
-30 19 -16 35 10 12 9 15 -4 15 -12 0 -16 5 -11 19 3 12 0 21 -10 24 -8 4 -12
13 -9 20 4 10 -7 16 -37 21 -42 7 -42 7 -19 23 21 15 23 15 32 0 6 -12 14 -14
26 -8 9 5 25 12 35 15 10 3 16 10 12 15 -3 5 -1 12 5 16 15 9 -7 45 -28 45
-13 1 -10 6 10 21 23 17 26 24 18 39 -9 16 -5 22 21 35 33 18 79 13 79 -7 0
-7 7 -3 15 9 16 22 10 57 -7 47 -6 -4 -8 2 -3 15 4 12 2 21 -4 21 -6 0 -11 -4
-11 -10 0 -5 -12 -10 -26 -10 -15 0 -23 4 -19 10 10 17 -47 -1 -68 -21 -10 -9
-27 -19 -36 -22 -14 -3 -18 2 -19 27 -1 26 5 36 28 50 30 17 40 36 19 36 -8 0
-8 5 1 15 10 12 9 15 -4 15 -10 0 -14 5 -11 10 4 7 -2 9 -18 5 -19 -5 -28 -2
-37 14 -8 16 -17 20 -35 15 -34 -9 -31 5 10 48 34 34 35 37 15 43 -20 6 -20 7
2 26 l23 20 -29 -6 c-26 -5 -28 -4 -17 9 8 9 22 16 31 16 25 0 50 10 50 21 0
15 -28 10 -67 -11 -22 -12 -46 -17 -60 -14 -18 5 -22 3 -18 -9 7 -17 -24 -32
-38 -18 -7 7 -5 12 6 17 9 3 14 10 11 15 -3 6 0 16 6 24 10 12 9 15 -4 15 -9
0 -16 8 -16 20 0 10 -8 24 -17 29 -15 9 -15 12 -5 19 23 15 -13 23 -48 11 -33
-12 -43 -34 -10 -24 11 4 20 2 20 -4 0 -6 -6 -11 -14 -11 -8 0 -16 -5 -18 -10
-4 -13 -108 -26 -108 -14 0 5 9 15 20 22 29 18 25 27 -12 26 -51 -2 -88 -15
-88 -30 0 -8 5 -14 11 -14 6 0 9 -7 5 -15 -3 -8 -1 -15 5 -15 6 0 9 -6 6 -14
-3 -8 -1 -17 6 -20 9 -3 8 -8 -3 -15 -18 -13 -40 -14 -40 -2 0 11 -38 2 -66
-16 -20 -13 -21 -12 -19 12 4 29 -10 41 -30 25 -18 -15 0 -74 21 -66 8 3 14 1
14 -4 0 -6 8 -10 18 -10 16 -1 16 -1 0 -14 -24 -18 -22 -32 4 -40 25 -6 16
-22 -17 -28 -11 -2 -20 -10 -20 -17 0 -8 -17 -19 -37 -25 -20 -6 -49 -21 -63
-34 -14 -13 -39 -24 -55 -25 -18 -1 -25 -6 -19 -11 14 -15 11 -23 -13 -31 -21
-7 -20 -8 10 -12 17 -2 32 -8 32 -14 0 -5 12 -9 28 -10 26 0 26 -1 6 -11 -19
-8 -20 -15 -14 -45 5 -20 6 -42 3 -49 -3 -8 5 -17 19 -23 13 -5 29 -16 36 -24
11 -13 9 -18 -8 -30 -18 -13 -15 -14 36 -11 l56 3 -27 -21 c-23 -18 -32 -20
-55 -11 -16 6 -40 8 -54 6 -30 -6 -34 4 -8 23 15 12 14 13 -11 14 -16 0 -26
-4 -22 -9 3 -6 -4 -15 -15 -21 -30 -16 -24 -30 14 -30 65 0 31 -55 -45 -74
-25 -5 -27 -4 -33 44 -6 48 0 78 17 79 4 1 10 1 14 1 4 0 -2 7 -13 16 -19 15
-19 15 2 11 11 -2 29 2 39 10 19 13 18 14 -8 39 -25 23 -55 25 -42 3 4 -5 1
-9 -4 -9 -6 0 -11 8 -11 18 0 10 18 27 45 41 54 29 53 37 -3 18 -35 -12 -42
-12 -46 0 -3 7 2 17 11 20 14 5 13 8 -5 14 -12 5 -22 13 -22 18 0 14 41 51 57
51 7 0 13 5 13 10 0 14 -16 13 -40 -2 -13 -8 -23 -9 -29 -3 -6 6 -31 222 -56
480 -89 917 -106 1095 -150 1545 -25 250 -47 484 -50 520 -3 36 -8 82 -11 103
l-6 37 -1581 0 -1582 0 -40 -36z m4055 -2344 c17 -11 9 -14 -52 -25 -30 -5
-38 -3 -38 9 0 22 62 34 90 16z m-17 -46 c-4 -10 -1 -15 8 -14 8 1 21 2 29 1
12 -1 11 -4 -3 -15 -13 -10 -27 -12 -47 -6 -48 14 -55 21 -35 37 26 19 56 17
48 -3z m-138 -44 c-3 -5 -11 -10 -16 -10 -6 0 -7 5 -4 10 3 6 11 10 16 10 6 0
7 -4 4 -10z m165 -60 c0 -5 -5 -10 -11 -10 -5 0 -7 5 -4 10 3 6 8 10 11 10 2
0 4 -4 4 -10z m7 -36 c-3 -3 -12 -4 -19 -1 -8 3 -5 6 6 6 11 1 17 -2 13 -5z
m-197 -74 c-20 -13 -33 -13 -25 0 3 6 14 10 23 10 15 0 15 -2 2 -10z m300 0
c-8 -5 -22 -10 -30 -10 -13 0 -13 1 0 10 8 5 22 10 30 10 13 0 13 -1 0 -10z
m-486 -35 c-4 -8 0 -22 7 -31 12 -14 14 -14 21 5 9 25 41 29 36 5 -2 -9 -12
-22 -23 -28 -11 -6 -23 -15 -27 -21 -4 -6 -19 -1 -37 13 -18 13 -32 18 -36 12
-10 -16 -35 -12 -35 6 0 8 5 12 10 9 6 -3 13 2 17 12 9 23 23 33 50 33 16 0
21 -4 17 -15z m366 -25 c-20 -13 -33 -13 -25 0 3 6 14 10 23 10 15 0 15 -2 2
-10z m-3 -56 c-3 -3 -12 -4 -19 -1 -8 3 -5 6 6 6 11 1 17 -2 13 -5z m-1366
-60 c26 -23 75 -122 94 -188 10 -32 37 -96 61 -143 48 -90 59 -168 29 -193
-19 -16 -32 -6 -50 36 -9 23 -21 34 -34 34 -13 0 -21 7 -21 18 0 12 -3 13 -8
5 -8 -13 -52 -6 -52 8 0 5 -6 9 -13 9 -18 0 -47 37 -47 60 0 11 -5 20 -11 20
-6 0 -24 14 -41 30 -16 17 -24 30 -16 30 7 0 0 11 -15 25 -28 27 -38 47 -12
25 21 -18 32 -4 13 17 -16 20 -32 54 -30 65 1 4 -5 5 -13 2 -11 -5 -15 1 -15
24 0 17 -6 32 -15 36 -8 3 -12 12 -9 21 4 8 1 21 -5 29 -13 16 18 49 40 42 8
-3 30 -1 49 3 45 12 99 5 121 -15z m6249 -75 c0 -5 5 -7 10 -4 6 3 10 2 10 -4
0 -7 16 -8 44 -5 32 5 50 2 70 -11 24 -16 26 -20 12 -33 -21 -21 -121 -29
-139 -11 -17 17 -30 79 -17 79 6 0 10 -5 10 -11z m-4727 -14 c15 -8 25 -10 22
-5 -4 6 0 10 9 10 11 0 12 -7 7 -27 -4 -16 -13 -29 -19 -29 -7 -1 -16 -2 -21
-3 -5 0 -11 -10 -14 -21 -13 -49 -72 -25 -83 33 -4 24 0 30 28 42 41 18 38 18
71 0z m4337 -21 c-52 -16 -99 -19 -84 -5 8 9 50 16 109 19 11 0 0 -6 -25 -14z
m293 -9 c-3 -11 -40 -16 -60 -8 -27 11 -11 24 25 21 20 -2 36 -7 35 -13z m179
-120 c-18 -15 -36 -23 -46 -19 -16 6 -16 8 0 25 9 11 30 19 46 19 l30 0 -30
-25z m-5282 -90 c0 -2 -7 -11 -16 -19 -20 -21 -66 -22 -58 -2 4 11 0 13 -17 9
-13 -4 -20 -2 -16 4 6 9 107 17 107 8z m-199 -38 c-8 -8 -11 -7 -11 4 0 20 13
34 18 19 3 -7 -1 -17 -7 -23z m-897 -47 c-7 -6 -24 22 -23 40 0 9 6 5 14 -10
7 -14 11 -27 9 -30z m986 36 c0 -8 14 -18 33 -22 l32 -7 -32 -15 c-27 -13 -35
-13 -48 -2 -9 7 -14 19 -11 27 3 7 0 13 -7 13 -8 0 -6 4 3 10 21 14 30 12 30
-4z m5525 -86 c-3 -5 -26 -10 -51 -10 -28 0 -43 4 -39 10 3 6 26 10 51 10 28
0 43 -4 39 -10z m-4969 -10 c26 -10 26 -11 9 -30 -21 -23 -75 -27 -75 -6 0 8
7 17 16 20 8 3 12 10 9 16 -8 13 7 13 41 0z m-106 -20 c-19 -13 -30 -13 -30 0
0 6 10 10 23 10 18 0 19 -2 7 -10z m4920 -19 c-8 -5 -42 -12 -75 -15 l-60 -6
45 14 c52 16 114 21 90 7z m-6230 -26 c7 -8 16 -12 21 -10 10 7 33 -34 24 -43
-3 -4 -9 -2 -13 4 -4 6 -20 10 -35 10 -29 -2 -62 28 -51 46 8 13 41 9 54 -7z
m6100 -15 c0 -5 12 -10 28 -11 24 0 25 -1 7 -9 -32 -14 -91 -11 -104 4 -10 12
-7 15 21 19 18 2 36 5 41 5 4 1 7 -2 7 -8z m-4662 -12 c-3 -7 -13 -15 -24 -17
-16 -3 -17 -1 -5 13 16 19 34 21 29 4z m97 2 c-3 -5 -16 -10 -28 -9 -20 1 -20
2 3 9 14 4 26 8 28 9 2 1 0 -3 -3 -9z m4122 3 c15 -6 13 -8 -12 -13 -16 -3
-43 -3 -60 -1 l-30 5 35 7 c19 3 38 7 42 8 3 0 15 -2 25 -6z m-4387 -23 c0 -5
-3 -10 -7 -10 -5 0 -18 -3 -30 -6 -17 -5 -23 -2 -23 10 0 11 9 16 30 16 17 0
30 -4 30 -10z m4600 0 c12 -8 10 -10 -10 -10 -14 0 -32 5 -40 10 -12 8 -10 10
10 10 14 0 32 -5 40 -10z m-5701 -42 c-2 -31 -3 -35 -6 -15 -2 15 -8 25 -13
22 -4 -3 -6 4 -3 15 9 36 23 21 22 -22z m1376 32 c-3 -5 -10 -10 -16 -10 -5 0
-9 5 -9 10 0 6 7 10 16 10 8 0 12 -4 9 -10z m4235 4 c0 -18 -47 -44 -79 -44
-20 0 -46 -3 -58 -6 -14 -4 -23 -2 -23 5 0 6 14 11 31 11 23 0 30 4 26 14 -3
8 -3 17 0 20 8 8 103 8 103 0z m-5763 -26 c-3 -8 -6 -5 -6 6 -1 11 2 17 5 13
3 -3 4 -12 1 -19z m5943 12 c-8 -5 -28 -9 -45 -9 l-30 1 30 8 c17 4 37 8 45 9
13 1 13 0 0 -9z m-655 -21 c5 -5 -5 -9 -24 -9 -25 0 -32 -4 -27 -15 4 -10 -1
-15 -15 -15 -11 0 -18 -3 -16 -7 6 -9 -79 -5 -103 4 -20 8 22 21 75 22 33 1
37 4 22 12 -9 6 -15 14 -12 20 7 10 85 1 100 -12z m-5121 -155 c11 -17 40 -55
64 -84 36 -45 56 -100 35 -100 -15 0 -73 52 -73 67 0 10 -6 13 -16 9 -8 -3
-12 -2 -9 4 7 12 -50 125 -80 158 -13 14 -21 30 -18 35 6 10 66 -44 97 -89z
m858 64 c44 -25 50 -36 29 -48 -11 -5 -37 -10 -58 -10 l-38 1 24 19 23 20 -22
0 c-19 0 -20 2 -10 15 15 18 24 19 52 3z m3488 -14 c0 -2 -21 -3 -47 -3 -46 2
-47 2 -13 8 33 7 60 4 60 -5z m250 6 c0 -5 -16 -10 -36 -10 -21 0 -33 4 -29
10 3 6 19 10 36 10 16 0 29 -4 29 -10z m320 -10 c0 -13 -30 -13 -50 0 -11 7
-7 10 18 10 17 0 32 -4 32 -10z m-455 -10 c-28 -12 -78 -12 -70 0 3 6 25 10
48 9 33 0 38 -2 22 -9z m315 -11 c-26 -11 -157 -23 -148 -14 8 9 90 23 133 23
37 1 38 0 15 -9z m-555 -9 c-3 -5 -13 -10 -21 -10 -8 0 -12 5 -9 10 3 6 13 10
21 10 8 0 12 -4 9 -10z m700 -10 c-11 -5 -30 -9 -42 -9 -13 -1 -23 -5 -23 -11
0 -15 -19 -12 -36 4 -12 13 -12 15 4 19 9 3 40 5 67 5 36 0 45 -2 30 -8z m183
4 c12 -4 22 -13 22 -20 0 -10 -16 -14 -61 -14 -37 0 -58 4 -54 10 3 6 18 11
33 11 20 1 17 4 -13 9 l-40 7 45 1 c25 1 55 -1 68 -4z m-653 -13 c-27 -11
-131 -25 -180 -23 -92 2 -91 2 -75 12 9 6 42 8 80 5 36 -4 76 -2 89 3 32 11
115 14 86 3z m270 -1 c4 -6 -7 -10 -27 -10 -25 0 -29 3 -18 10 19 13 37 13 45
0z m1714 -4 c-10 -10 -99 -17 -99 -8 0 5 23 10 52 11 28 1 50 -1 47 -3z
m-5584 -15 c-19 -18 -79 -28 -107 -17 -46 17 -32 26 44 26 44 0 68 -4 63 -9z
m-1089 -25 c3 -14 3 -30 -1 -35 -3 -6 -1 -11 4 -11 6 0 11 -3 11 -7 0 -5 -11
-8 -25 -8 -44 0 -46 84 -3 85 4 0 10 -11 14 -24z m3854 14 c0 -5 -16 -10 -36
-10 -21 0 -33 4 -29 10 3 6 19 10 36 10 16 0 29 -4 29 -10z m-3950 -19 c0 -11
3 -27 6 -35 5 -12 2 -15 -9 -10 -9 3 -13 12 -10 22 5 11 2 14 -10 9 -12 -5
-17 -1 -17 13 0 13 7 20 20 20 13 0 20 -7 20 -19z m4525 9 c-3 -5 -21 -9 -38
-9 l-32 1 30 8 c43 11 47 11 40 0z m202 4 c-10 -10 -87 -12 -81 -3 3 5 24 9
46 9 23 0 38 -3 35 -6z m-286 -54 l24 -19 -35 -1 c-70 0 -109 24 -52 33 15 2
30 5 33 6 4 0 17 -8 30 -19z m-2828 3 c-7 -2 -19 -2 -25 0 -7 3 -2 5 12 5 14
0 19 -2 13 -5z m5034 1 c-3 -3 -12 -4 -19 -1 -8 3 -5 6 6 6 11 1 17 -2 13 -5z
m-2537 -18 c0 -9 -30 -14 -35 -6 -4 6 3 10 14 10 12 0 21 -2 21 -4z m2645 -6
c4 -6 -22 -10 -69 -10 -44 0 -76 4 -76 10 0 6 30 10 69 10 39 0 73 -4 76 -10z
m-5100 -7 l40 -7 -50 -12 c-61 -15 -96 -16 -114 -5 -39 25 33 38 124 24z
m2445 -30 c0 -12 -3 -14 -8 -7 -4 7 -18 14 -32 17 -21 4 -20 4 8 6 24 1 32 -3
32 -16z m80 -3 c0 -5 -17 -9 -37 -9 l-38 2 35 7 c19 4 36 8 38 9 1 0 2 -3 2
-9z m57 4 c-3 -3 -12 -4 -19 -1 -8 3 -5 6 6 6 11 1 17 -2 13 -5z m366 -11 c-7
-2 -19 -2 -25 0 -7 3 -2 5 12 5 14 0 19 -2 13 -5z m-658 -13 c-11 -5 -27 -9
-35 -9 -13 -1 -13 0 0 9 8 5 24 9 35 9 l20 0 -20 -9z m394 4 c17 -4 31 -13 31
-20 0 -11 -21 -14 -92 -14 -50 0 -89 2 -86 5 6 6 87 33 104 34 6 1 26 -2 43
-5z m-2669 -14 c0 -5 -12 -10 -26 -10 -14 0 -23 4 -19 10 3 6 15 10 26 10 10
0 19 -4 19 -10z m2745 -10 c-3 -5 -12 -7 -20 -3 -21 7 -19 13 6 13 11 0 18 -4
14 -10z m79 4 c9 -3 14 -9 11 -13 -6 -10 -65 -1 -65 10 0 10 31 12 54 3z
m-2618 -13 c-3 -5 -15 -7 -26 -4 -28 7 -25 13 6 13 14 0 23 -4 20 -9z m2982 2
c-10 -2 -26 -2 -35 0 -10 3 -2 5 17 5 19 0 27 -2 18 -5z m-3199 -29 c17 -14
31 -30 31 -35 0 -5 -27 -9 -60 -9 -33 0 -60 4 -60 10 0 6 -7 10 -16 10 -8 0
-12 -4 -9 -10 4 -6 -5 -10 -21 -10 -22 0 -25 2 -14 15 7 8 23 15 36 15 17 0
22 4 18 15 -5 12 -9 13 -20 4 -16 -13 -30 -6 -19 10 3 6 28 11 55 11 38 0 55
-6 79 -26z m2406 6 c-4 -6 6 -10 24 -10 36 0 50 -17 19 -23 -19 -3 -18 -5 6
-6 63 -3 13 -12 -85 -16 -57 -2 -95 -2 -85 1 15 5 16 8 5 15 -10 6 -4 9 18 9
38 0 85 19 77 31 -3 5 2 9 11 9 9 0 13 -4 10 -10z m-2605 -9 c0 -6 -5 -13 -10
-16 -7 -4 -6 -13 1 -27 13 -25 -1 -38 -43 -38 -67 0 -35 84 35 89 9 0 17 -3
17 -8z m420 5 c0 -2 -9 -6 -20 -9 -11 -3 -20 -1 -20 4 0 5 9 9 20 9 11 0 20
-2 20 -4z m2903 -13 c-7 -2 -21 -2 -30 0 -10 3 -4 5 12 5 17 0 24 -2 18 -5z
m1727 -3 c-20 -13 -40 -13 -40 0 0 6 12 10 28 10 21 0 24 -2 12 -10z m-1377
-20 c16 -15 -53 -22 -106 -10 -97 23 -96 31 3 25 52 -3 99 -10 103 -15z m177
10 c0 -5 -16 -10 -36 -10 -21 0 -33 4 -29 10 3 6 19 10 36 10 16 0 29 -4 29
-10z m-5132 -52 c65 -35 93 -46 89 -34 -9 24 20 6 55 -32 28 -31 105 -61 214
-81 62 -12 97 -25 111 -42 17 -21 323 -630 323 -643 0 -7 16 -36 35 -65 18
-30 42 -79 52 -110 9 -31 26 -64 38 -74 17 -16 17 -18 2 -13 -10 3 -20 0 -23
-8 -3 -8 -19 -19 -35 -25 -47 -16 -67 2 -67 58 0 49 -4 65 -30 121 -9 19 -16
40 -17 47 0 7 -17 30 -37 52 -20 22 -34 42 -31 45 5 4 -3 15 -34 51 -16 17
-17 29 -2 20 20 -13 -3 66 -39 134 -19 36 -49 92 -65 124 -16 31 -34 57 -39
57 -5 0 -6 4 -3 10 7 12 -22 70 -35 70 -6 0 -10 7 -10 16 0 28 -38 80 -77 107
-40 27 -169 63 -237 66 -29 1 -46 9 -62 28 -27 32 -79 35 -120 8 -29 -19 -43
-13 -24 10 7 9 10 18 7 22 -4 3 -2 12 3 18 12 15 -11 37 -43 42 -30 5 -38 23
-20 50 8 13 18 23 20 23 3 0 48 -23 101 -52z m4602 42 c0 -5 -18 -10 -41 -10
-24 0 -38 4 -34 10 3 6 22 10 41 10 19 0 34 -4 34 -10z m430 0 c-8 -5 -19 -10
-25 -10 -5 0 -3 5 5 10 8 5 20 10 25 10 6 0 3 -5 -5 -10z m-1302 -17 c-10 -2
-28 -2 -40 0 -13 2 -5 4 17 4 22 1 32 -1 23 -4z m1101 -19 c-13 -7 -42 -13
-64 -13 -37 0 -38 1 -15 11 14 5 36 12 50 14 13 3 26 7 29 9 2 3 8 2 14 -2 5
-3 -1 -12 -14 -19z m1489 19 c-10 -2 -26 -2 -35 0 -10 3 -2 5 17 5 19 0 27 -2
18 -5z m-4845 -10 c-7 -2 -21 -2 -30 0 -10 3 -4 5 12 5 17 0 24 -2 18 -5z
m-118 -13 c-3 -5 -13 -10 -21 -10 -8 0 -12 5 -9 10 3 6 13 10 21 10 8 0 12 -4
9 -10z m3078 3 c-7 -2 -21 -2 -30 0 -10 3 -4 5 12 5 17 0 24 -2 18 -5z m-2535
-20 c49 -7 55 -19 12 -28 -16 -4 -32 -11 -35 -16 -9 -14 -51 -11 -65 6 -6 8
-9 23 -5 35 5 17 12 20 28 15 12 -3 41 -9 65 -12z m1805 0 c-7 -2 -19 -2 -25
0 -7 3 -2 5 12 5 14 0 19 -2 13 -5z m667 -2 c19 -6 9 -9 -43 -14 -74 -8 -118
4 -52 14 54 8 66 8 95 0z m-2629 -17 c27 -9 48 -17 47 -19 -2 -1 -38 0 -80 3
-58 3 -78 8 -78 18 0 19 49 18 111 -2z m-191 -4 c0 -5 -10 -10 -22 -10 -19 0
-20 2 -8 10 19 13 30 13 30 0z m2568 -7 c-10 -2 -26 -2 -35 0 -10 3 -2 5 17 5
19 0 27 -2 18 -5z m-2752 -28 c10 -8 14 -15 7 -15 -6 0 -18 -2 -25 -5 -9 -4
-14 2 -15 15 -2 24 6 25 33 5z m144 5 c0 -5 -4 -10 -9 -10 -6 0 -13 5 -16 10
-3 6 1 10 9 10 9 0 16 -4 16 -10z m258 -5 c17 -4 32 -13 32 -20 0 -7 5 -15 12
-17 21 -7 0 -38 -27 -38 -14 0 -25 -5 -25 -11 0 -14 -38 -3 -72 22 -15 11 -46
20 -72 20 l-44 2 26 29 c25 26 32 28 82 24 30 -2 70 -7 88 -11z m2098 -8 c10
-10 -40 -19 -87 -15 l-44 3 35 11 c36 11 86 12 96 1z m-2296 -7 c-36 -12 -72
-12 -65 0 3 6 25 10 48 9 36 -1 38 -2 17 -9z m2331 -22 c-23 -6 -37 -6 -44 1
-8 8 2 11 34 10 l44 -1 -34 -10z m119 2 c-8 -5 -24 -10 -35 -10 -17 0 -17 2
-5 10 8 5 24 10 35 10 17 0 17 -2 5 -10z m-250 -4 c0 -3 -4 -8 -10 -11 -5 -3
-10 -1 -10 4 0 6 5 11 10 11 6 0 10 -2 10 -4z m-2115 -26 c8 -12 -40 -24 -57
-14 -9 6 -6 10 12 15 36 10 38 10 45 -1z m2050 0 c-3 -5 -27 -9 -53 -9 -46 2
-46 2 -12 9 53 11 72 11 65 0z m2433 -7 c-10 -2 -26 -2 -35 0 -10 3 -2 5 17 5
19 0 27 -2 18 -5z m-2228 -19 c-23 -11 -56 -14 -97 -12 -35 2 -63 0 -63 -4 0
-5 -6 -3 -14 4 -11 11 -4 14 43 19 31 3 81 6 111 7 l55 1 -35 -15z m-1880 -45
c0 -12 -97 -12 -105 0 -3 6 12 11 32 13 46 4 73 -1 73 -13z m1687 15 c-3 -3
-12 -4 -19 -1 -8 3 -5 6 6 6 11 1 17 -2 13 -5z m-2194 -11 c-7 -2 -19 -2 -25
0 -7 3 -2 5 12 5 14 0 19 -2 13 -5z m152 -3 c-3 -5 -12 -10 -18 -10 -7 0 -6 4
3 10 19 12 23 12 15 0z m1775 -6 c0 -2 -15 -4 -32 -3 -27 0 -29 2 -13 8 18 8
45 4 45 -5z m400 12 c0 -2 -7 -7 -16 -10 -8 -3 -12 -2 -9 4 6 10 25 14 25 6z
m-2493 -42 c-3 -3 -12 -4 -19 -1 -8 3 -5 6 6 6 11 1 17 -2 13 -5z m276 -81
c-7 -2 -21 -2 -30 0 -10 3 -4 5 12 5 17 0 24 -2 18 -5z m1377 -3 c0 -5 -7 -10
-15 -10 -8 0 -15 5 -15 10 0 6 7 10 15 10 8 0 15 -4 15 -10z m157 -16 c-3 -3
-12 -4 -19 -1 -8 3 -5 6 6 6 11 1 17 -2 13 -5z m-1484 -21 c-7 -2 -19 -2 -25
0 -7 3 -2 5 12 5 14 0 19 -2 13 -5z m280 0 c-7 -2 -21 -2 -30 0 -10 3 -4 5 12
5 17 0 24 -2 18 -5z m2 -33 c4 -6 -11 -10 -37 -10 -31 0 -39 3 -28 10 20 13
57 13 65 0z m975 -78 l45 -8 -45 -7 c-41 -5 -103 -5 -259 1 -78 3 -53 20 34
24 90 4 169 0 225 -10z m-1553 2 c-3 -3 -12 -4 -19 -1 -8 3 -5 6 6 6 11 1 17
-2 13 -5z m110 -20 c-3 -3 -12 -4 -19 -1 -8 3 -5 6 6 6 11 1 17 -2 13 -5z
m1701 -11 c-10 -2 -26 -2 -35 0 -10 3 -2 5 17 5 19 0 27 -2 18 -5z m-1805 -30
c-7 -2 -19 -2 -25 0 -7 3 -2 5 12 5 14 0 19 -2 13 -5z m1537 -14 c46 -10 50
-12 33 -25 -17 -12 -16 -13 12 -14 21 0 26 -3 18 -11 -8 -8 -25 -8 -61 2 -45
11 -52 10 -68 -5 -12 -12 -25 -15 -43 -11 -58 15 -39 41 31 44 20 1 26 5 22
16 -7 18 -8 18 56 4z m275 -9 c4 -6 -11 -10 -37 -9 -33 0 -38 2 -23 9 28 12
53 12 60 0z m-1858 -21 c-14 -8 -22 -8 -30 0 -8 8 -3 11 19 11 25 -1 27 -2 11
-11z m3262 -13 c10 -12 -2 -15 -69 -21 -81 -7 -117 -1 -64 10 16 4 38 10 49
15 31 13 71 11 84 -4z m404 -13 c-13 -2 -33 -2 -45 0 -13 2 -3 4 22 4 25 0 35
-2 23 -4z m-3413 -23 c-20 -13 -90 -13 -90 0 0 6 24 10 53 10 37 0 48 -3 37
-10z m1504 -6 c31 -12 4 -24 -52 -22 -42 1 -48 2 -22 6 29 4 32 6 15 12 -17 7
-15 9 12 9 17 1 38 -2 47 -5z m-264 -14 c0 -5 -15 -10 -32 -9 -31 1 -32 1 -8
9 35 11 40 11 40 0z m-51 -26 c2 -2 -10 -4 -27 -4 -18 0 -32 5 -32 10 0 9 47
4 59 -6z m-1669 -44 c-8 -5 -26 -9 -40 -9 -23 1 -23 2 5 9 43 11 52 11 35 0z
m1745 -29 c35 -6 28 -8 -54 -15 -79 -6 -97 -4 -110 9 -14 13 -9 15 54 14 39 0
88 -4 110 -8z m-1840 -21 c-3 -5 -22 -10 -41 -10 -19 0 -34 5 -34 10 0 6 18
10 41 10 24 0 38 -4 34 -10z m1668 -57 c-7 -2 -21 -2 -30 0 -10 3 -4 5 12 5
17 0 24 -2 18 -5z m582 -8 l40 -15 -60 6 c-33 3 -64 10 -69 15 -16 15 45 10
89 -6z m-2157 -2 c-10 -2 -26 -2 -35 0 -10 3 -2 5 17 5 19 0 27 -2 18 -5z
m4417 -3 c4 -6 -10 -10 -37 -9 -40 1 -41 2 -13 9 43 11 43 11 50 0z m-4248 -6
c-3 -3 -12 -4 -19 -1 -8 3 -5 6 6 6 11 1 17 -2 13 -5z m1933 -10 c0 -2 -9 -4
-20 -4 -11 0 -20 4 -20 9 0 5 9 7 20 4 11 -3 20 -7 20 -9z m-2050 2 c0 -8 -61
-12 -66 -4 -3 4 11 8 30 8 20 0 36 -2 36 -4z m1533 -13 c-7 -2 -19 -2 -25 0
-7 3 -2 5 12 5 14 0 19 -2 13 -5z m-1565 -20 c-10 -2 -26 -2 -35 0 -10 3 -2 5
17 5 19 0 27 -2 18 -5z m-198 -53 c20 -13 10 -19 -22 -13 -15 3 -25 9 -22 14
7 12 25 11 44 -1z m3767 -36 c-3 -3 -12 -4 -19 -1 -8 3 -5 6 6 6 11 1 17 -2
13 -5z m1428 -4 c-8 -13 -55 -13 -75 0 -11 7 -2 10 33 10 30 0 46 -4 42 -10z
m-3197 -37 c-10 -2 -26 -2 -35 0 -10 3 -2 5 17 5 19 0 27 -2 18 -5z m489 -39
c-3 -3 -12 -4 -19 -1 -8 3 -5 6 6 6 11 1 17 -2 13 -5z m-144 -91 c-7 -2 -21
-2 -30 0 -10 3 -4 5 12 5 17 0 24 -2 18 -5z m-458 -43 c3 -6 -4 -10 -17 -10
-18 0 -20 2 -8 10 19 12 18 12 25 0z m160 -10 c4 -6 -12 -10 -40 -10 -28 0
-44 4 -40 10 3 6 21 10 40 10 19 0 37 -4 40 -10z m3179 1 c8 -12 -75 -24 -109
-15 -20 5 -23 9 -13 15 17 11 115 11 122 0z m-3250 -36 c-4 -10 -20 -15 -53
-15 -34 0 -42 3 -31 10 8 6 28 7 44 4 19 -4 26 -3 22 5 -4 6 -1 11 8 11 10 0
13 -6 10 -15z m2809 -22 c-7 -2 -21 -2 -30 0 -10 3 -4 5 12 5 17 0 24 -2 18
-5z m-4786 -90 c3 -7 -6 -17 -18 -23 -29 -16 -48 8 -22 28 19 14 35 12 40 -5z
m4293 3 c0 -2 -9 -6 -20 -9 -11 -3 -20 -1 -20 4 0 5 9 9 20 9 11 0 20 -2 20
-4z m420 -326 c12 -8 11 -10 -7 -10 -12 0 -25 5 -28 10 -8 13 15 13 35 0z m20
-106 c0 -2 -16 -4 -36 -4 -19 0 -33 4 -30 8 5 8 66 4 66 -4z m-52 -91 c-10 -2
-26 -2 -35 0 -10 3 -2 5 17 5 19 0 27 -2 18 -5z m569 -1569 c-3 -3 -12 -4 -19
-1 -8 3 -5 6 6 6 11 1 17 -2 13 -5z m-2026 -1567 c-8 -8 -11 -3 -11 19 1 25 2
27 11 11 8 -14 8 -22 0 -30z m737 -285 c2 -7 -5 -12 -17 -12 -14 0 -19 5 -14
15 6 17 25 15 31 -3z m147 -52 c3 -5 1 -10 -4 -10 -6 0 -11 5 -11 10 0 6 2 10
4 10 3 0 8 -4 11 -10z m65 -34 c0 -9 -7 -12 -20 -9 -11 3 -17 9 -14 14 8 14
34 10 34 -5z m340 -256 c0 -5 -4 -10 -10 -10 -5 0 -10 5 -10 10 0 6 5 10 10
10 6 0 10 -4 10 -10z m60 0 c0 -5 -4 -10 -10 -10 -5 0 -10 5 -10 10 0 6 5 10
10 10 6 0 10 -4 10 -10z"/>
<path d="M2725 6640 c-3 -6 1 -7 9 -4 18 7 21 14 7 14 -6 0 -13 -4 -16 -10z"/>
<path d="M5700 9580 c-19 -11 -30 -19 -25 -19 6 0 26 8 45 19 19 11 31 19 25
19 -5 0 -26 -8 -45 -19z"/>
<path d="M5620 9540 c-19 -11 -31 -19 -27 -20 11 0 67 29 67 35 0 7 -1 7 -40
-15z"/>
<path d="M5526 9495 c-11 -8 -15 -15 -10 -15 6 0 19 7 30 15 10 8 15 14 9 14
-5 0 -19 -6 -29 -14z"/>
<path d="M5455 9460 c-16 -11 -26 -20 -22 -20 11 0 67 29 67 35 0 10 -16 4
-45 -15z"/>
<path d="M5378 9424 c-39 -21 -35 -28 5 -8 37 19 44 24 31 24 -5 -1 -21 -8
-36 -16z"/>
<path d="M5284 9374 c-18 -14 -18 -14 6 -3 31 14 36 19 24 19 -6 0 -19 -7 -30
-16z"/>
<path d="M5230 9350 c-8 -5 -10 -10 -5 -10 6 0 17 5 25 10 8 5 11 10 5 10 -5
0 -17 -5 -25 -10z"/>
<path d="M5175 9320 c-3 -6 1 -7 9 -4 18 7 21 14 7 14 -6 0 -13 -4 -16 -10z"/>
<path d="M5080 9275 c-36 -19 -60 -34 -55 -34 6 0 39 15 75 34 36 19 61 34 55
34 -5 0 -39 -15 -75 -34z"/>
<path d="M4990 9230 c-9 -6 -10 -10 -3 -10 6 0 15 5 18 10 8 12 4 12 -15 0z"/>
<path d="M4950 9210 c-9 -6 -10 -10 -3 -10 6 0 15 5 18 10 8 12 4 12 -15 0z"/>
<path d="M4240 7389 c-8 -19 -18 -28 -27 -25 -9 4 -11 1 -7 -5 4 -6 0 -15 -7
-20 -10 -6 -7 -9 11 -10 52 -2 85 3 101 17 8 8 21 14 27 14 7 0 12 5 12 11 0
7 -10 5 -25 -5 -42 -27 -95 -15 -60 14 19 16 19 40 1 40 -7 0 -19 -14 -26 -31z"/>
<path d="M4123 7378 c-58 -12 -60 -40 -3 -36 22 2 40 6 40 10 0 4 7 5 15 2 8
-4 15 -1 15 5 0 6 -5 11 -11 11 -5 0 -7 5 -4 10 7 11 5 11 -52 -2z"/>
<path d="M4000 7320 c19 -13 30 -13 30 0 0 6 -10 10 -22 10 -19 0 -20 -2 -8
-10z"/>
<path d="M3805 7030 c-4 -6 -21 -17 -38 -24 l-32 -14 47 -1 c25 -1 54 2 62 5
14 5 13 9 -5 25 -26 22 -26 22 -34 9z"/>
<path d="M8710 6850 c0 -5 4 -10 9 -10 6 0 13 5 16 10 3 6 -1 10 -9 10 -9 0
-16 -4 -16 -10z"/>
<path d="M4675 6560 c-3 -5 -1 -10 4 -10 6 0 11 5 11 10 0 6 -2 10 -4 10 -3 0
-8 -4 -11 -10z"/>
<path d="M4606 6541 c-24 -5 -27 -8 -15 -18 13 -10 42 -17 64 -14 6 1 3 6 -5
11 -13 9 -13 11 0 20 13 9 13 10 0 9 -8 -1 -28 -4 -44 -8z"/>
<path d="M4628 6472 c-9 -2 -19 -10 -22 -18 -4 -10 3 -14 24 -14 17 0 30 4 30
9 0 5 8 11 18 13 12 3 10 5 -8 9 -14 3 -32 3 -42 1z"/>
<path d="M4492 6438 c-31 -15 -22 -32 19 -36 23 -2 30 0 20 6 -10 8 -8 13 10
26 l23 16 -24 -1 c-14 0 -35 -5 -48 -11z"/>
<path d="M4748 6429 c-25 -14 -23 -39 3 -39 14 0 19 5 16 14 -3 7 0 19 6 25
14 14 -2 14 -25 0z"/>
<path d="M4570 6420 c0 -5 14 -10 30 -10 17 0 30 5 30 10 0 6 -13 10 -30 10
-16 0 -30 -4 -30 -10z"/>
<path d="M4880 6289 c0 -5 5 -7 10 -4 6 3 10 8 10 11 0 2 -4 4 -10 4 -5 0 -10
-5 -10 -11z"/>
<path d="M7165 6290 l-30 -8 32 -1 c17 0 35 4 38 9 7 11 3 11 -40 0z"/>
<path d="M7150 6247 c-33 -10 -59 -32 -60 -51 0 -8 68 -1 120 12 25 6 25 6 -5
13 -29 7 -29 7 -7 14 18 6 20 10 10 16 -15 10 -13 10 -58 -4z"/>
<path d="M7937 6239 c-18 -10 -17 -12 10 -28 29 -18 66 -24 57 -9 -3 4 -1 8 3
8 5 0 14 9 21 20 11 19 10 20 -30 20 -24 0 -51 -5 -61 -11z"/>
<path d="M4724 6215 c0 -14 3 -25 6 -25 4 0 12 11 18 25 10 22 9 25 -6 25 -13
0 -18 -8 -18 -25z"/>
<path d="M6895 6190 c-3 -6 1 -7 9 -4 18 7 21 14 7 14 -6 0 -13 -4 -16 -10z"/>
<path d="M6805 6170 c-4 -7 3 -8 22 -4 38 9 42 14 10 14 -14 0 -29 -5 -32 -10z"/>
<path d="M7188 6173 c12 -2 30 -2 40 0 9 3 -1 5 -23 4 -22 0 -30 -2 -17 -4z"/>
<path d="M6820 6142 c0 -6 7 -12 15 -16 8 -3 14 -11 13 -18 -2 -7 3 -13 10
-12 36 3 42 5 42 14 0 5 -6 7 -14 4 -8 -3 -17 -1 -21 5 -4 7 10 11 41 11 26 0
45 2 42 5 -10 10 -128 16 -128 7z"/>
<path d="M7027 6118 c-21 -15 -25 -23 -16 -29 26 -16 -5 -24 -91 -24 -79 1
-86 -1 -69 -13 46 -32 234 -35 215 -3 -3 5 3 11 13 14 15 4 18 10 14 28 -6 21
-26 50 -35 49 -2 0 -16 -10 -31 -22z"/>
<path d="M7719 6130 c-20 -13 6 -19 45 -10 21 4 40 11 43 14 9 8 -74 4 -88 -4z"/>
<path d="M7483 6103 c9 -2 23 -2 30 0 6 3 -1 5 -18 5 -16 0 -22 -2 -12 -5z"/>
<path d="M6338 5783 c7 -3 16 -2 19 1 4 3 -2 6 -13 5 -11 0 -14 -3 -6 -6z"/>
<path d="M6399 5747 c14 -18 4 -27 -30 -27 -15 0 -31 -5 -35 -11 -8 -14 95 -4
109 10 15 14 -5 41 -30 41 -20 0 -23 -3 -14 -13z"/>
<path d="M6463 5753 c9 -2 23 -2 30 0 6 3 -1 5 -18 5 -16 0 -22 -2 -12 -5z"/>
<path d="M4996 5685 c-22 -23 -10 -42 23 -37 27 4 47 32 33 46 -10 11 -41 6
-56 -9z"/>
<path d="M5061 5567 c-8 -11 -9 -17 -1 -22 6 -3 7 -12 3 -18 -3 -7 3 -4 14 6
11 9 29 17 41 17 12 0 22 5 22 10 0 6 -6 10 -12 10 -7 0 -22 3 -34 6 -12 3
-26 -1 -33 -9z"/>
<path d="M6080 5564 c0 -14 36 -33 60 -33 l25 0 -22 11 c-13 6 -23 15 -23 20
0 4 -9 8 -20 8 -11 0 -20 -3 -20 -6z"/>
<path d="M5850 5535 c-7 -8 -19 -15 -27 -15 -8 0 -11 -4 -8 -10 8 -13 27 -13
60 0 23 9 25 13 15 25 -16 19 -24 19 -40 0z"/>
<path d="M6175 5530 c3 -5 8 -10 11 -10 2 0 4 5 4 10 0 6 -5 10 -11 10 -5 0
-7 -4 -4 -10z"/>
<path d="M5775 5510 c3 -5 -3 -10 -14 -10 -29 0 -35 -17 -8 -24 37 -10 43 -7
45 19 1 17 -3 25 -14 25 -8 0 -12 -4 -9 -10z"/>
<path d="M6100 5490 c0 -5 5 -10 10 -10 6 0 10 5 10 10 0 6 -4 10 -10 10 -5 0
-10 -4 -10 -10z"/>
<path d="M5845 5480 c-4 -6 7 -10 24 -10 17 0 31 5 31 10 0 6 -11 10 -24 10
-14 0 -28 -4 -31 -10z"/>
<path d="M5776 5452 c-3 -5 4 -12 17 -16 31 -8 47 -7 47 2 0 5 -6 9 -12 9 -7
0 -20 4 -29 7 -10 4 -20 3 -23 -2z"/>
<path d="M5667 5393 c-4 -3 -2 -12 4 -20 13 -15 59 -18 59 -3 0 6 -12 10 -26
10 -14 0 -23 4 -19 10 7 11 -8 14 -18 3z"/>
<path d="M5691 5349 c-91 -12 -96 -17 -15 -18 55 -1 73 2 78 14 3 8 4 14 3 14
-1 -1 -31 -5 -66 -10z"/>
<path d="M5818 5323 c7 -3 16 -2 19 1 4 3 -2 6 -13 5 -11 0 -14 -3 -6 -6z"/>
<path d="M4431 3374 c0 -11 3 -14 6 -6 3 7 2 16 -1 19 -3 4 -6 -2 -5 -13z"/>
<path d="M4668 3273 c7 -3 16 -2 19 1 4 3 -2 6 -13 5 -11 0 -14 -3 -6 -6z"/>
<path d="M4315 1493 c-59 -14 -362 -99 -880 -248 -319 -92 -611 -175 -650
-185 -38 -10 -101 -28 -140 -40 -120 -37 -179 -52 -211 -55 -18 -2 -40 -8 -50
-13 -11 -5 -73 -24 -139 -42 -66 -18 -139 -38 -162 -46 -23 -7 -75 -22 -115
-33 -40 -11 -118 -34 -173 -51 -55 -17 -107 -33 -115 -35 -8 -2 -46 -14 -85
-26 -38 -12 -104 -30 -145 -41 -41 -10 -95 -25 -120 -33 -25 -7 -62 -17 -82
-20 -21 -4 -38 -12 -38 -19 0 -8 -2 -8 -8 0 -5 8 -14 9 -32 1 -23 -9 -181 -54
-275 -78 -22 -6 -49 -14 -60 -19 -11 -5 -31 -11 -45 -15 -14 -3 -65 -18 -115
-31 -49 -14 -112 -30 -140 -36 -27 -6 -52 -14 -55 -18 -6 -8 -137 -40 -162
-40 -10 0 -18 -4 -18 -10 0 -5 -6 -10 -13 -10 -7 0 -48 -11 -92 -26 -44 -14
-90 -23 -102 -21 -12 2 -24 -2 -27 -9 -3 -7 -17 -14 -33 -16 l-28 -3 -3 -138
-3 -137 2063 1 c1241 0 2054 4 2041 9 -13 5 -23 13 -23 19 0 5 10 12 23 15 20
6 21 7 4 17 -9 5 -22 7 -27 4 -6 -3 -10 -1 -10 4 0 6 9 11 19 11 17 0 19 7 17
77 -2 48 -7 78 -14 81 -23 7 -12 19 30 31 l42 13 -23 17 c-20 15 -21 19 -7 30
14 11 14 15 1 28 -17 17 -11 33 11 33 9 0 13 5 9 13 -4 6 1 3 9 -8 16 -18 17
-19 46 -2 18 11 30 14 30 7 0 -6 5 -8 12 -4 6 4 26 8 42 10 17 1 69 4 116 8
47 3 177 8 290 11 203 6 271 9 425 19 44 3 157 8 250 11 165 5 251 15 326 37
59 17 80 65 73 169 -4 70 -16 114 -72 268 -67 185 -76 200 -131 216 -21 6 -23
5 -17 -11 4 -11 10 -31 13 -46 5 -27 4 -28 -38 -28 -53 0 -64 7 -78 43 -15 39
-14 47 6 47 9 0 14 3 10 6 -3 3 -15 3 -26 -1 -26 -8 -35 -42 -22 -78 6 -15 8
-34 5 -42 -6 -15 -35 -20 -48 -8 -3 4 -29 6 -56 4 -42 -2 -49 0 -44 13 7 17
34 22 34 6 0 -5 11 -10 25 -10 14 0 25 5 25 10 0 6 -6 10 -13 10 -7 0 -28 14
-46 31 -26 23 -36 27 -42 17 -6 -8 -3 -17 8 -25 13 -10 14 -15 3 -28 -8 -9
-20 -13 -29 -9 -26 10 -115 14 -120 5 -4 -4 -28 -10 -56 -13 -27 -3 -44 -3
-37 -1 26 10 10 23 -28 23 -40 0 -55 -15 -22 -23 14 -4 14 -5 1 -6 -9 0 -22 6
-29 14 -7 8 -20 15 -30 15 -22 0 -32 -24 -18 -38 17 -17 -19 -27 -48 -13 -18
8 -31 8 -45 1 -21 -12 -52 0 -79 30 -15 18 -139 55 -174 52 -41 -3 -1 13 47
19 31 4 -22 7 -127 8 l-178 1 6 38 c4 20 8 54 10 74 1 20 8 43 14 51 7 8 10
21 7 29 -4 9 1 18 10 22 13 5 14 10 5 27 -9 16 -8 24 4 38 8 9 18 36 21 59 4
39 3 42 -18 41 -12 -1 -31 -3 -42 -6z m1295 -394 c6 -10 7 -19 2 -19 -5 0 -14
12 -20 26 -14 29 2 24 18 -7z m8 -70 c-3 -8 -7 -3 -11 10 -4 17 -3 21 5 13 5
-5 8 -16 6 -23z m-171 -11 c-3 -8 -6 -5 -6 6 -1 11 2 17 5 13 3 -3 4 -12 1
-19z m-696 -30 c34 -40 42 -58 25 -58 -8 0 -21 7 -30 15 -20 20 -26 19 -26 -5
0 -11 7 -20 15 -20 8 0 15 -4 15 -10 0 -5 -13 -10 -29 -10 -26 0 -28 3 -26 31
1 16 7 35 14 42 6 6 11 17 11 24 0 19 9 16 31 -9z m440 -9 c-26 -24 -28 -24
-33 4 -4 20 -1 23 24 19 29 -4 29 -5 9 -23z m-42 -17 c13 -13 45 -8 68 10 7 5
14 5 18 -2 3 -5 1 -10 -5 -10 -15 0 -1 -52 18 -67 11 -9 12 -13 3 -13 -7 0
-20 -7 -29 -16 -12 -12 -17 -13 -20 -4 -3 7 2 16 9 21 12 7 11 9 -1 9 -21 0
-35 -12 -35 -30 0 -17 -50 -25 -101 -16 -34 7 -88 46 -63 46 24 0 -13 20 -37
20 -21 0 -34 17 -34 45 0 8 17 16 40 20 22 4 42 10 45 14 6 11 107 -11 124
-27z m426 15 c13 -13 13 -16 -1 -21 -25 -10 -41 -6 -19 5 16 7 14 8 -13 6 -25
-3 -36 1 -44 16 -10 19 -8 20 26 14 20 -3 43 -12 51 -20z m-725 -7 c0 -5 -5
-10 -11 -10 -5 0 -7 5 -4 10 3 6 8 10 11 10 2 0 4 -4 4 -10z m785 -10 c-3 -5
-12 -10 -18 -10 -7 0 -6 4 3 10 19 12 23 12 15 0z m-705 -41 c0 -10 -4 -19
-10 -19 -5 0 -10 12 -10 26 0 14 4 23 10 19 6 -3 10 -15 10 -26z m540 -11 c0
-4 -7 -8 -15 -8 -10 0 -15 10 -15 28 1 26 1 26 15 8 8 -11 15 -23 15 -28z
m-623 -34 c-3 -3 -12 -4 -19 -1 -8 3 -5 6 6 6 11 1 17 -2 13 -5z m480 0 c-3
-3 -12 -4 -19 -1 -8 3 -5 6 6 6 11 1 17 -2 13 -5z m143 -4 c0 -13 -38 -32 -51
-25 -14 10 9 35 32 35 11 0 19 -4 19 -10z m-110 -42 c0 -18 -2 -20 -9 -8 -6 8
-7 18 -5 22 9 14 14 9 14 -14z m-400 -14 c0 -14 3 -14 15 -4 12 10 19 10 27 2
7 -7 20 -12 30 -12 14 0 16 -6 12 -32 -5 -29 -4 -31 8 -16 13 15 16 14 38 -10
l25 -25 -27 5 c-15 3 -25 1 -22 -3 3 -5 -38 -9 -90 -9 -65 0 -97 4 -102 13 -4
6 -3 9 1 4 15 -13 65 44 65 75 0 15 5 28 10 28 6 0 10 -7 10 -16z m731 -6 c21
-26 24 -38 9 -38 -5 0 -10 7 -10 16 0 9 -9 18 -20 21 -11 3 -20 9 -20 14 0 16
22 9 41 -13z m-68 -15 c-42 -8 -25 -25 17 -18 26 4 40 3 40 -4 0 -15 -66 -14
-93 1 -21 11 -21 11 -2 19 11 4 29 7 40 7 17 -1 16 -1 -2 -5z m-473 -63 c12
-8 11 -10 -7 -10 -13 0 -23 5 -23 10 0 13 11 13 30 0z m-297 -17 c-7 -2 -21
-2 -30 0 -10 3 -4 5 12 5 17 0 24 -2 18 -5z"/>
<path d="M5160 905 c0 -9 6 -12 15 -9 8 4 12 10 9 15 -8 14 -24 10 -24 -6z"/>
<path d="M4993 1133 c20 -2 54 -2 75 0 20 2 3 4 -38 4 -41 0 -58 -2 -37 -4z"/>
<path d="M4698 1123 c7 -3 16 -2 19 1 4 3 -2 6 -13 5 -11 0 -14 -3 -6 -6z"/>
<path d="M4753 1123 c9 -2 25 -2 35 0 9 3 1 5 -18 5 -19 0 -27 -2 -17 -5z"/>
<path d="M5391 1104 c0 -11 3 -14 6 -6 3 7 2 16 -1 19 -3 4 -6 -2 -5 -13z"/>
<path d="M5062 1084 c9 -10 24 -14 33 -10 23 9 9 26 -23 26 -24 0 -25 -1 -10
-16z"/>
<path d="M4800 1056 c0 -8 -3 -16 -7 -19 -5 -2 -2 -2 5 0 8 1 29 3 48 3 24 0
34 5 34 15 0 11 -11 15 -40 15 -28 0 -40 -4 -40 -14z"/>
<path d="M2298 993 c7 -3 16 -2 19 1 4 3 -2 6 -13 5 -11 0 -14 -3 -6 -6z"/>
<path d="M7185 650 c-3 -5 -1 -10 4 -10 6 0 11 5 11 10 0 6 -2 10 -4 10 -3 0
-8 -4 -11 -10z"/>
<path d="M7360 570 c0 -5 5 -10 10 -10 6 0 10 -7 10 -15 0 -21 13 -19 27 4 10
16 9 20 -3 25 -24 9 -44 7 -44 -4z"/>
<path d="M8080 229 c0 -5 5 -7 10 -4 6 3 10 8 10 11 0 2 -4 4 -10 4 -5 0 -10
-5 -10 -11z"/>
<path d="M7985 210 c3 -5 8 -10 11 -10 2 0 4 5 4 10 0 6 -5 10 -11 10 -5 0 -7
-4 -4 -10z"/>
<path d="M8140 201 c0 -6 5 -13 10 -16 6 -3 10 1 10 9 0 9 -4 16 -10 16 -5 0
-10 -4 -10 -9z"/>
<path d="M8065 190 c-3 -5 -1 -10 4 -10 6 0 11 5 11 10 0 6 -2 10 -4 10 -3 0
-8 -4 -11 -10z"/>
<path d="M7669 104 c-10 -13 -10 -17 1 -24 18 -11 30 -3 30 21 0 23 -13 25
-31 3z"/>
<path d="M7790 110 c0 -5 5 -10 10 -10 6 0 10 5 10 10 0 6 -4 10 -10 10 -5 0
-10 -4 -10 -10z"/>
<path d="M7840 109 c0 -5 5 -7 10 -4 6 3 10 8 10 11 0 2 -4 4 -10 4 -5 0 -10
-5 -10 -11z"/>
<path d="M8265 90 c-3 -5 3 -10 15 -10 12 0 18 5 15 10 -3 6 -10 10 -15 10 -5
0 -12 -4 -15 -10z"/>
</g>
</svg>
