<?xml version="1.0" encoding="utf-8"?>
<!-- Generator: Adobe Illustrator 23.0.0, SVG Export Plug-In . SVG Version: 6.00 Build 0)  -->
<svg version="1.1" id="Layer_1" xmlns="http://www.w3.org/2000/svg" xmlns:xlink="http://www.w3.org/1999/xlink" x="0px" y="0px"
	 viewBox="0 0 414.18 282.09" style="enable-background:new 0 0 414.18 282.09;" xml:space="preserve">
<g>
	<g>
		<path fill="#01e9c9" d="M42.87,42.03c0,8.62,7.67,11.61,16.51,14.38c11.71,3.73,25.45,7.56,25.45,25.24c0,15.01-13.21,23.32-28.54,23.32
			c-8.73,0-14.8-3.09-19.27-3.09c-2.87,0-5.11,1.28-7.45,3.09l-1.92-24.71h0.21c7.03,13.63,17.78,22.58,28.32,22.58
			c8.73,0,14.48-4.47,14.48-12.67c0-10.22-10.54-12.67-21.08-16.29c-10.54-3.41-21.3-7.99-21.3-22.9
			c0-13.84,11.07-22.68,27.37-22.68c7.99,0,13.52,2.98,17.78,2.98c2.77,0,4.69-1.6,6.39-2.98l0.42,21.51h-0.21
			c-6.5-11.39-13.31-19.38-24.39-19.38C48.52,30.43,42.87,34.69,42.87,42.03z"/>
		<path fill="#01e9c9" d="M128.92,84.73c-1.39,10.22-6.28,20.23-19.27,20.23c-9.8,0-17.04-5.75-16.93-18l0.21-33.12h-5.75v-1.17
			c10.97-2.34,19.7-9.27,23.53-20.02h1.06v18.53h15.97l-0.53,2.66h-15.44V87.4c0,5.43,2.13,8.52,6.39,8.52
			c4.9,0,8.09-4.26,9.48-11.61L128.92,84.73z"/>
		<path fill="#01e9c9" d="M170.03,63.01c0-7.24-0.64-8.73-5.65-11.61v-0.21h24.71v41.42c0,6.92,0.96,8.31,5.54,11.07v0.21h-24.6V89.74
			c-2.45,9.8-9.27,15.23-18.42,15.23c-11.39,0-16.83-8.2-16.83-18.53V63.01c0-7.24-0.64-8.73-5.54-11.61v-0.21h24.6v35.78
			c0,4.68,2.34,8.84,7.13,8.84c5.32,0,9.05-4.37,9.05-14.06V63.01z"/>
		<path fill="#01e9c9" d="M237.02,35.96c0-7.13-1.39-9.16-6.39-11.61v-0.21h25.45v68.15c0,6.71,0.53,8.41,5.11,11.39v0.21h-24.17V90.7
			c-2.24,7.98-8.52,14.27-17.89,14.27c-12.35,0-22.47-10.43-22.47-26.83c0-17.04,10.65-28.01,23.85-28.01
			c8.73,0,14.27,4.9,16.5,11.93V35.96z M237.02,83.24V71.1c0-9.58-4.79-15.76-10.22-15.76c-6.82,0-10.01,7.88-10.01,22.79
			c0,12.35,3.62,19.27,10.22,19.27C232.44,97.41,237.02,91.65,237.02,83.24z"/>
		<path fill="#01e9c9" d="M288.04,92.29c0,7.03,0.32,8.41,5.01,11.39v0.21h-29.07v-0.21c4.68-2.98,5.01-4.37,5.01-11.39V63.01
			c0-7.24-0.64-8.73-5.65-11.61v-0.21h24.71V92.29z M278.24,24.46c6.18,0,10.86,4.37,10.86,10.12c0,5.75-4.68,10.22-10.86,10.22
			c-6.07,0-10.65-4.47-10.65-10.22C267.59,28.83,272.17,24.46,278.24,24.46z"/>
		<path fill="#01e9c9" d="M295.6,77.49c0-16.5,13.2-27.37,29.28-27.37c16.08,0,29.28,10.86,29.28,27.37c0,16.61-13.2,27.47-29.28,27.47
			C308.8,104.97,295.6,94.1,295.6,77.49z M333.94,77.49c0-16.72-2.45-25.56-9.05-25.56c-6.6,0-9.05,8.84-9.05,25.56
			c0,16.83,2.45,25.66,9.05,25.66C331.49,103.16,333.94,94.32,333.94,77.49z"/>
		<path fill="#01e9c9" d="M27.54,195.18v-0.21c4.68-3.09,5.86-5.75,5.86-12.78v-48.67c0-7.03-1.17-9.58-5.86-12.67v-0.21h39.08
			c15.87,0,26.84,5.11,26.84,18.64c0,10.54-9.16,16.61-19.91,17.25c11.61,0.53,24.38,5.75,24.38,18.74
			c0,14.48-12.35,19.91-29.82,19.91H27.54z M59.16,155.67c9.37,0,15.33-5.96,15.33-16.08c0-10.33-5.96-16.08-15.33-16.08h-5.75
			v32.16H59.16z M60.76,192.31c11.39,0,17.68-5.96,17.68-17.04c0-10.86-6.28-16.93-17.68-16.93h-7.35v33.97H60.76z"/>
		<path fill="#01e9c9" d="M238.51,142.47v13.84c2.56-9.58,9.48-14.91,18.42-14.91c11.61,0,16.93,8.09,16.93,18.42v23.75
			c0,7.03,0.32,8.41,5.01,11.39v0.21H249.8v-0.21c4.68-2.98,5.01-4.37,5.01-11.39V159.3c0-4.9-2.24-8.84-7.24-8.84
			c-5.32,0-9.05,4.47-9.05,14.06v19.06c0,7.03,0.32,8.41,5.01,11.39v0.21h-29.07v-0.21c4.68-2.98,5.01-4.37,5.01-11.39v-29.28
			c0-7.24-0.64-8.73-5.65-11.61v-0.21H238.51z"/>
		<path fill="#01e9c9" d="M321.58,127.24c0-7.13-1.39-9.16-6.39-11.61v-0.21h25.45v68.15c0,6.71,0.53,8.41,5.11,11.39v0.21h-24.17v-13.2
			c-2.24,7.98-8.52,14.27-17.89,14.27c-12.35,0-22.47-10.43-22.47-26.83c0-17.04,10.65-28.01,23.85-28.01
			c8.73,0,14.27,4.9,16.5,11.93V127.24z M321.58,174.52v-12.14c0-9.58-4.79-15.76-10.22-15.76c-6.82,0-10.01,7.88-10.01,22.79
			c0,12.35,3.62,19.27,10.22,19.27C317,188.68,321.58,182.93,321.58,174.52z"/>
	</g>
	<path fill="#01e9c9" d="M388.04,142.47v0.21c3.41,1.28,5.43,3.73,5.43,7.24c0,1.49-0.32,3.09-1.06,4.9l-9.05,22.15l-11.29-23.53
		c-0.96-2.02-1.6-4.26-1.6-5.96c0-2.13,0.75-3.41,2.98-4.79v-0.21h-29.07v0.21c3.51,3.2,4.58,4.69,7.88,11.29l22.68,44.72
		l-2.45,5.32c-1.97,4.47-4.1,6.89-7.12,7.56c0.33-0.89,0.53-1.84,0.53-2.85c0-4.58-3.72-8.3-8.3-8.3c-0.6,0-1.19,0.07-1.75,0.19
		c-4.35,0.57-7.75,3.75-7.75,9.04c0,6.28,4.79,9.91,11.07,9.91c6.82,0,11.18-4.15,14.91-13.1l21.72-51.97
		c2.77-6.82,4.58-8.95,8.2-11.82v-0.21H388.04z"/>
	<path fill="#01e9c9" d="M212.95,191.45c-5.22,0-6.07-3.83-6.07-10.75c0-7.67,0.21-14.16,0.21-20.66c0-13.31-9.05-18.64-26.52-18.64
		c-13.31,0-22.47,5.32-22.47,13.52c0,5.53,4.58,8.94,10.12,8.94c3.22,0,5.99-0.82,8.14-2.41c1.4-0.9,2.52-2.2,3.18-3.75
		c0.02-0.04,0.05-0.08,0.07-0.12c-0.01,0-0.02,0-0.04,0.01c0.39-0.96,0.62-2.01,0.62-3.11c0-3.91-2.72-7.17-6.36-8.05
		c1.23-1.9,3.29-3.12,6.21-3.12c6.07,0,8.09,5.32,8.09,10.75v10.33l-8.09,1.49c-12.78,2.34-24.6,4.69-24.6,16.72
		c0,9.05,7.46,13.31,15.76,13.31c9.05,0,15.44-4.9,17.14-12.03c0,0.53,0.21,2.34,0.21,2.77c0.96,5.75,5.33,9.48,13.95,9.48
		c5.11,0,10.22-1.92,12.88-4.9v-0.21C214.65,191.35,213.69,191.45,212.95,191.45z M188.03,177.61c0,6.07-2.87,10.97-7.88,10.97
		c-4.05,0-6.17-3.41-6.17-8.84c0-6.92,2.87-10.97,9.69-12.35l4.47-1.06L188.03,177.61z"/>
	<path fill="#01e9c9" d="M153.73,152.48c0-6.28-4.47-11.07-11.39-11.07c-9.48,0-14.27,8.62-16.83,18.21v-17.14h-24.71v0.21
		c5.01,2.87,5.65,4.37,5.65,11.61v29.28c0,7.03-0.32,8.41-5.01,11.39v0.21h32.27v-0.21c-5.75-2.56-8.2-4.37-8.2-11.39v-16.4
		c0-9.28,4.71-14.79,10.07-14.89c-0.64,1.17-1.03,2.5-1.03,3.93c0,3.35,2,6.22,4.86,7.53c0.44,0.24,1.04,0.45,1.74,0.59
		c0.01,0,0.03,0.01,0.04,0.01c0.49,0.1,1.01,0.17,1.57,0.17c0.02,0,0.03,0,0.05,0c0.01,0,0.03,0,0.04,0c0.38,0,0.74-0.06,1.11-0.11
		C149.22,163.85,153.73,159.71,153.73,152.48z"/>
</g>
<g>
	<path fill="#01e9c9" d="M30.42,232.23h2.17l6.91,13.24l6.84-13.24h2.17v17.66h-1.61l-0.03-15.24L39.95,248H39l-6.94-13.34v15.24h-1.64V232.23z"/>
	<path fill="#01e9c9" d="M62.31,249.89l-0.03-2.22c-0.52,0.77-1.2,1.35-2.04,1.73c-0.84,0.38-1.81,0.57-2.9,0.57c-0.89,0-1.68-0.17-2.36-0.52
		s-1.21-0.82-1.58-1.43s-0.55-1.29-0.55-2.04c0-1.14,0.44-2.04,1.32-2.7c0.88-0.66,2.1-0.98,3.65-0.98h4.44v-1.01
		c0-1.04-0.31-1.85-0.93-2.42c-0.62-0.57-1.53-0.86-2.72-0.86c-1.41,0-2.83,0.53-4.26,1.59l-0.76-1.16
		c0.89-0.62,1.74-1.08,2.55-1.38c0.81-0.29,1.73-0.44,2.78-0.44c1.6,0,2.83,0.4,3.71,1.2c0.87,0.8,1.32,1.9,1.34,3.32l0.03,8.75
		H62.31z M60.63,247.73c0.82-0.55,1.37-1.32,1.65-2.31v-1.82h-4.26c-1.16,0-2.04,0.19-2.65,0.58s-0.91,0.97-0.91,1.74
		c0,0.79,0.29,1.43,0.87,1.91c0.58,0.48,1.35,0.72,2.31,0.72C58.82,248.56,59.81,248.28,60.63,247.73z"/>
	<path fill="#01e9c9" d="M78.22,249.89L73.53,243l-2.98,3.05v3.83h-1.69v-18.72h1.69v12.71l7.11-7.22h2.02l-4.97,5.12l5.55,8.1H78.22z"/>
	<path fill="#01e9c9" d="M84.98,232.02c0.22,0.23,0.33,0.51,0.33,0.84c0,0.34-0.11,0.62-0.34,0.86s-0.5,0.35-0.82,0.35c-0.34,0-0.62-0.12-0.85-0.35
		s-0.34-0.52-0.34-0.86c0-0.34,0.11-0.62,0.34-0.84c0.23-0.23,0.51-0.34,0.85-0.34S84.77,231.79,84.98,232.02z M83.29,236.67h1.69
		v13.22h-1.69V236.67z"/>
	<path fill="#01e9c9" d="M100.79,238c0.9,0.92,1.35,2.17,1.35,3.77v8.12h-1.72v-7.72c0-1.24-0.35-2.22-1.03-2.93c-0.69-0.71-1.65-1.06-2.88-1.06
		c-1.36,0.02-2.45,0.44-3.27,1.26c-0.82,0.82-1.28,1.93-1.4,3.33v7.11h-1.69v-13.22h1.69v3.08c0.45-1.03,1.12-1.8,2.01-2.32
		c0.88-0.52,1.96-0.79,3.22-0.81C98.65,236.62,99.89,237.08,100.79,238z"/>
	<path fill="#01e9c9" d="M118.34,236.67v11.83c0,1.28-0.27,2.4-0.81,3.36c-0.54,0.96-1.31,1.69-2.31,2.21c-1,0.51-2.16,0.77-3.47,0.77
		c-1.95,0-3.76-0.67-5.42-2.02l0.81-1.21c0.67,0.59,1.38,1.03,2.12,1.34s1.55,0.45,2.42,0.45c1.51,0,2.72-0.44,3.62-1.32
		c0.9-0.88,1.35-2.07,1.35-3.54v-2.14c-0.47,0.93-1.14,1.65-2.02,2.17s-1.88,0.78-3.03,0.78c-1.18,0-2.22-0.27-3.14-0.82
		c-0.92-0.55-1.63-1.3-2.14-2.27c-0.51-0.97-0.77-2.06-0.77-3.29s0.26-2.32,0.77-3.28c0.51-0.96,1.23-1.71,2.16-2.25
		c0.92-0.54,1.98-0.81,3.15-0.81c1.14,0,2.14,0.26,3,0.77c0.86,0.51,1.53,1.24,2.02,2.18v-2.9H118.34z M114.35,247.33
		c0.72-0.43,1.29-1.02,1.69-1.78c0.4-0.76,0.61-1.61,0.61-2.55c0-0.96-0.2-1.82-0.61-2.57c-0.4-0.76-0.97-1.35-1.69-1.78
		s-1.54-0.64-2.45-0.64s-1.72,0.21-2.45,0.64c-0.72,0.43-1.29,1.02-1.7,1.78s-0.62,1.62-0.62,2.57c0,0.96,0.21,1.81,0.62,2.56
		c0.41,0.75,0.98,1.34,1.69,1.77c0.71,0.43,1.53,0.64,2.46,0.64C112.81,247.98,113.63,247.76,114.35,247.33z"/>
	<path fill="#01e9c9" d="M140.75,237.47c0.97,0.56,1.72,1.35,2.26,2.37c0.54,1.02,0.81,2.17,0.81,3.47c0,1.28-0.27,2.42-0.81,3.43
		c-0.54,1.01-1.29,1.79-2.25,2.36s-2.05,0.85-3.28,0.85c-1.21,0-2.27-0.27-3.18-0.82c-0.91-0.55-1.61-1.31-2.12-2.28v3.05h-1.69
		v-18.72h1.69v8.55c0.49-0.98,1.19-1.74,2.11-2.28c0.92-0.55,1.97-0.82,3.17-0.82C138.69,236.62,139.78,236.9,140.75,237.47z
		 M139.7,247.81c0.76-0.45,1.35-1.06,1.77-1.85c0.42-0.79,0.63-1.69,0.63-2.7c0-0.99-0.21-1.88-0.63-2.67
		c-0.42-0.79-1.01-1.41-1.77-1.85s-1.61-0.67-2.55-0.67c-0.96,0-1.81,0.22-2.56,0.67c-0.75,0.45-1.34,1.06-1.77,1.85
		c-0.43,0.79-0.64,1.68-0.64,2.67c0,1.01,0.21,1.91,0.63,2.7c0.42,0.79,1.01,1.41,1.77,1.85s1.61,0.67,2.57,0.67
		C138.1,248.48,138.95,248.26,139.7,247.81z"/>
	<path fill="#01e9c9" d="M151.22,237.44c0.82-0.53,1.8-0.8,2.94-0.82v1.59c-1.4-0.02-2.52,0.39-3.37,1.22c-0.85,0.83-1.33,1.96-1.45,3.39v7.06
		h-1.69v-13.22h1.69v3.08C149.78,238.74,150.4,237.97,151.22,237.44z"/>
	<path fill="#01e9c9" d="M164.78,249.89l-0.03-2.22c-0.52,0.77-1.2,1.35-2.04,1.73c-0.84,0.38-1.81,0.57-2.9,0.57c-0.89,0-1.68-0.17-2.36-0.52
		s-1.21-0.82-1.58-1.43s-0.55-1.29-0.55-2.04c0-1.14,0.44-2.04,1.32-2.7c0.88-0.66,2.1-0.98,3.65-0.98h4.44v-1.01
		c0-1.04-0.31-1.85-0.93-2.42c-0.62-0.57-1.53-0.86-2.72-0.86c-1.41,0-2.83,0.53-4.26,1.59l-0.76-1.16
		c0.89-0.62,1.74-1.08,2.55-1.38c0.81-0.29,1.73-0.44,2.78-0.44c1.6,0,2.83,0.4,3.71,1.2c0.87,0.8,1.32,1.9,1.34,3.32l0.03,8.75
		H164.78z M163.1,247.73c0.82-0.55,1.37-1.32,1.65-2.31v-1.82h-4.26c-1.16,0-2.04,0.19-2.65,0.58s-0.91,0.97-0.91,1.74
		c0,0.79,0.29,1.43,0.87,1.91c0.58,0.48,1.35,0.72,2.31,0.72C161.29,248.56,162.29,248.28,163.1,247.73z"/>
	<path fill="#01e9c9" d="M181.85,238c0.9,0.92,1.35,2.17,1.35,3.77v8.12h-1.72v-7.72c0-1.24-0.35-2.22-1.03-2.93c-0.69-0.71-1.65-1.06-2.88-1.06
		c-1.36,0.02-2.45,0.44-3.27,1.26c-0.82,0.82-1.28,1.93-1.4,3.33v7.11h-1.69v-13.22h1.69v3.08c0.45-1.03,1.12-1.8,2.01-2.32
		c0.88-0.52,1.96-0.79,3.22-0.81C179.71,236.62,180.95,237.08,181.85,238z"/>
	<path fill="#01e9c9" d="M200,231.17v18.72h-1.69v-3.03c-0.5,0.99-1.21,1.76-2.12,2.31s-1.97,0.82-3.18,0.82c-1.25,0-2.35-0.29-3.33-0.86
		c-0.98-0.57-1.73-1.37-2.27-2.4c-0.54-1.03-0.81-2.19-0.81-3.48s0.27-2.45,0.82-3.46c0.55-1.01,1.3-1.8,2.27-2.37
		c0.97-0.57,2.06-0.86,3.29-0.86c1.21,0,2.27,0.28,3.19,0.83c0.92,0.56,1.63,1.33,2.13,2.32v-8.55H200z M195.89,247.86
		c0.76-0.45,1.35-1.06,1.78-1.85c0.43-0.79,0.64-1.69,0.64-2.7c0-1.01-0.21-1.91-0.64-2.71c-0.43-0.8-1.02-1.42-1.78-1.88
		s-1.61-0.68-2.57-0.68c-0.96,0-1.82,0.23-2.57,0.68s-1.35,1.08-1.79,1.88c-0.44,0.8-0.66,1.7-0.66,2.71c0,1.01,0.21,1.91,0.64,2.7
		c0.43,0.79,1.03,1.41,1.79,1.85c0.77,0.45,1.63,0.67,2.59,0.67C194.27,248.53,195.13,248.31,195.89,247.86z"/>
	<path fill="#01e9c9" d="M210.47,238.27c-0.62-0.18-1.24-0.27-1.84-0.27c-0.84,0-1.52,0.16-2.03,0.49c-0.51,0.33-0.77,0.82-0.77,1.48
		c0,0.45,0.14,0.82,0.42,1.11c0.28,0.29,0.62,0.52,1.03,0.69c0.41,0.18,0.99,0.37,1.73,0.59c0.91,0.27,1.65,0.53,2.22,0.79
		c0.57,0.26,1.06,0.64,1.46,1.14s0.61,1.15,0.61,1.96c0,1.19-0.45,2.11-1.36,2.74s-2.04,0.95-3.41,0.95c-0.96,0-1.88-0.16-2.77-0.48
		c-0.89-0.32-1.64-0.77-2.25-1.36l0.68-1.21c0.57,0.52,1.25,0.93,2.03,1.24c0.78,0.3,1.58,0.45,2.38,0.45
		c0.89,0,1.62-0.19,2.18-0.56c0.56-0.37,0.85-0.91,0.85-1.61c0-0.49-0.14-0.89-0.43-1.2c-0.29-0.31-0.64-0.55-1.07-0.73
		s-1.02-0.38-1.78-0.62c-0.89-0.27-1.61-0.53-2.17-0.78s-1.03-0.62-1.41-1.1c-0.39-0.48-0.58-1.11-0.58-1.88
		c0-1.16,0.43-2.04,1.3-2.62s1.95-0.88,3.24-0.88c0.76,0,1.49,0.1,2.19,0.3c0.71,0.2,1.34,0.48,1.89,0.83l-0.66,1.29
		C211.65,238.7,211.09,238.45,210.47,238.27z"/>
	<path fill="#01e9c9" d="M229.24,238.27c-0.62-0.18-1.24-0.27-1.84-0.27c-0.84,0-1.52,0.16-2.03,0.49s-0.77,0.82-0.77,1.48
		c0,0.45,0.14,0.82,0.42,1.11c0.28,0.29,0.62,0.52,1.03,0.69c0.41,0.18,0.99,0.37,1.73,0.59c0.91,0.27,1.65,0.53,2.22,0.79
		c0.57,0.26,1.06,0.64,1.46,1.14s0.61,1.15,0.61,1.96c0,1.19-0.45,2.11-1.36,2.74s-2.04,0.95-3.41,0.95c-0.96,0-1.88-0.16-2.78-0.48
		c-0.89-0.32-1.64-0.77-2.25-1.36l0.68-1.21c0.57,0.52,1.25,0.93,2.03,1.24s1.58,0.45,2.38,0.45c0.89,0,1.62-0.19,2.18-0.56
		c0.56-0.37,0.84-0.91,0.84-1.61c0-0.49-0.14-0.89-0.43-1.2s-0.64-0.55-1.07-0.73s-1.02-0.38-1.78-0.62
		c-0.89-0.27-1.62-0.53-2.17-0.78s-1.03-0.62-1.41-1.1s-0.58-1.11-0.58-1.88c0-1.16,0.43-2.04,1.3-2.62
		c0.87-0.59,1.95-0.88,3.24-0.88c0.76,0,1.49,0.1,2.2,0.3c0.71,0.2,1.34,0.48,1.89,0.83l-0.66,1.29
		C230.42,238.7,229.86,238.45,229.24,238.27z"/>
	<path fill="#01e9c9" d="M242.33,248.98c-0.91,0.62-1.88,0.95-2.93,0.98c-1.01,0-1.81-0.31-2.4-0.93c-0.59-0.62-0.88-1.56-0.88-2.8v-7.87h-1.89
		l-0.03-1.31h1.92v-3.41h1.69v3.41l4.29-0.03v1.34h-4.29v7.59c0,1.63,0.61,2.45,1.82,2.45c0.67,0,1.4-0.24,2.19-0.71L242.33,248.98z
		"/>
	<path fill="#01e9c9" d="M249.2,237.44c0.82-0.53,1.79-0.8,2.94-0.82v1.59c-1.4-0.02-2.52,0.39-3.37,1.22c-0.85,0.83-1.33,1.96-1.45,3.39v7.06
		h-1.69v-13.22h1.69v3.08C247.76,238.74,248.39,237.97,249.2,237.44z"/>
	<path fill="#01e9c9" d="M263.85,237.47c1.01,0.56,1.8,1.35,2.37,2.36c0.57,1.01,0.86,2.15,0.86,3.43c0,1.29-0.29,2.45-0.86,3.47
		c-0.57,1.02-1.36,1.81-2.37,2.37s-2.15,0.85-3.43,0.85c-1.28,0-2.42-0.28-3.43-0.85c-1.01-0.56-1.8-1.35-2.37-2.37
		c-0.57-1.02-0.86-2.17-0.86-3.47c0-1.28,0.29-2.42,0.86-3.43c0.57-1.01,1.36-1.79,2.37-2.36c1.01-0.56,2.15-0.84,3.43-0.84
		C261.7,236.62,262.84,236.9,263.85,237.47z M257.84,238.74c-0.76,0.44-1.35,1.05-1.77,1.84c-0.42,0.79-0.63,1.69-0.63,2.7
		c0,1.03,0.21,1.93,0.63,2.72c0.42,0.79,1.01,1.4,1.77,1.84c0.76,0.44,1.61,0.66,2.57,0.66c0.96,0,1.82-0.22,2.57-0.66
		c0.76-0.44,1.34-1.05,1.77-1.84c0.42-0.79,0.63-1.7,0.63-2.72c0-1.01-0.21-1.91-0.63-2.7c-0.42-0.79-1.01-1.4-1.77-1.84
		s-1.62-0.66-2.57-0.66C259.46,238.09,258.6,238.3,257.84,238.74z"/>
	<path fill="#01e9c9" d="M281.55,238c0.9,0.92,1.35,2.17,1.35,3.77v8.12h-1.72v-7.72c0-1.24-0.34-2.22-1.03-2.93c-0.69-0.71-1.65-1.06-2.88-1.06
		c-1.36,0.02-2.45,0.44-3.27,1.26s-1.28,1.93-1.4,3.33v7.11h-1.69v-13.22h1.69v3.08c0.45-1.03,1.12-1.8,2-2.32
		c0.88-0.52,1.96-0.79,3.22-0.81C279.41,236.62,280.65,237.08,281.55,238z"/>
	<path fill="#01e9c9" d="M299.09,236.67v11.83c0,1.28-0.27,2.4-0.81,3.36c-0.54,0.96-1.31,1.69-2.31,2.21c-1,0.51-2.16,0.77-3.47,0.77
		c-1.95,0-3.76-0.67-5.42-2.02l0.81-1.21c0.67,0.59,1.38,1.03,2.12,1.34s1.55,0.45,2.42,0.45c1.51,0,2.72-0.44,3.62-1.32
		c0.9-0.88,1.35-2.07,1.35-3.54v-2.14c-0.47,0.93-1.14,1.65-2.02,2.17c-0.88,0.52-1.88,0.78-3.03,0.78c-1.18,0-2.22-0.27-3.14-0.82
		c-0.92-0.55-1.63-1.3-2.14-2.27c-0.51-0.97-0.77-2.06-0.77-3.29s0.26-2.32,0.77-3.28c0.51-0.96,1.23-1.71,2.16-2.25
		c0.92-0.54,1.98-0.81,3.15-0.81c1.14,0,2.14,0.26,3,0.77c0.86,0.51,1.53,1.24,2.02,2.18v-2.9H299.09z M295.11,247.33
		c0.72-0.43,1.29-1.02,1.69-1.78c0.4-0.76,0.61-1.61,0.61-2.55c0-0.96-0.2-1.82-0.61-2.57c-0.4-0.76-0.97-1.35-1.69-1.78
		c-0.72-0.43-1.54-0.64-2.45-0.64s-1.72,0.21-2.45,0.64c-0.72,0.43-1.29,1.02-1.7,1.78s-0.62,1.62-0.62,2.57
		c0,0.96,0.21,1.81,0.62,2.56c0.41,0.75,0.98,1.34,1.69,1.77s1.53,0.64,2.46,0.64C293.57,247.98,294.38,247.76,295.11,247.33z"/>
</g>
</svg>
